<?xml version="1.0" encoding="UTF-8" standalone="no"?>
<!-- Created with Inkscape (http://www.inkscape.org/) -->

<svg
   xmlns:dc="http://purl.org/dc/elements/1.1/"
   xmlns:cc="http://creativecommons.org/ns#"
   xmlns:rdf="http://www.w3.org/1999/02/22-rdf-syntax-ns#"
   xmlns:svg="http://www.w3.org/2000/svg"
   xmlns="http://www.w3.org/2000/svg"
   xmlns:sodipodi="http://sodipodi.sourceforge.net/DTD/sodipodi-0.dtd"
   xmlns:inkscape="http://www.inkscape.org/namespaces/inkscape"
   width="100"
   height="100"
   id="svg2"
   version="1.1"
   inkscape:version="0.48.4 r9939"
   sodipodi:docname="game_asset_enemy.svg">
  <title
     id="title3017">game_asset_enemy</title>
  <defs
     id="defs4" />
  <sodipodi:namedview
     id="base"
     pagecolor="#ffffff"
     bordercolor="#666666"
     borderopacity="1.0"
     inkscape:pageopacity="0.0"
     inkscape:pageshadow="2"
     inkscape:zoom="2"
     inkscape:cx="62.825009"
     inkscape:cy="-4.8381575"
     inkscape:document-units="px"
     inkscape:current-layer="layer1"
     showgrid="false"
     inkscape:window-width="1366"
     inkscape:window-height="716"
     inkscape:window-x="-8"
     inkscape:window-y="-8"
     inkscape:window-maximized="1"
     showguides="true"
     inkscape:guide-bbox="true">
    <sodipodi:guide
       orientation="1,0"
       position="7.5761441,8.3337585"
       id="guide2989" />
    <sodipodi:guide
       orientation="0,1"
       position="7.5761441,8.3337585"
       id="guide2991" />
    <sodipodi:guide
       orientation="0,1"
       position="30.25,92.25"
       id="guide2993" />
    <sodipodi:guide
       orientation="1,0"
       position="200,18.5"
       id="guide2995" />
  </sodipodi:namedview>
  <metadata
     id="metadata7">
    <rdf:RDF>
      <cc:Work
         rdf:about="">
        <dc:format>image/svg+xml</dc:format>
        <dc:type
           rdf:resource="http://purl.org/dc/dcmitype/StillImage" />
        <dc:title>game_asset_enemy</dc:title>
      </cc:Work>
    </rdf:RDF>
  </metadata>
  <g
     inkscape:label="Layer 1"
     inkscape:groupmode="layer"
     id="layer1"
     transform="translate(0,-952.36218)">
    <path
       style="fill:#000000"
       d="m 8.9308495,90.405951 c 0,-0.07153 39.5874665,-78.44045 40.2311865,-79.64325 0.198261,-0.37045 0.237666,4.936925 0.243598,32.808703 l 0.0071,33.250644 -20.116953,6.833471 c -11.064324,3.758409 -20.1727431,6.833472 -20.2409316,6.833472 -0.068188,0 -0.1239789,-0.03737 -0.1239789,-0.08304 z"
       id="path3011"
       inkscape:connector-curvature="0"
       transform="translate(0,952.36218)" />
    <path
       style="fill:#000000"
       d="m 69.385246,1036.0842 -20.595224,-6.8969 -0.813674,-33.05507 1.199268,-33.05067 0.435283,0.83435 c 0.246588,0.47824 8.265801,16.18465 17.793464,34.83562 9.527664,18.65107 18.444614,36.20877 19.891833,39.02697 1.492078,2.9054 2.559905,5.1206 2.466386,5.1164 -0.0907,0 -9.283941,-3.0001 -20.377336,-6.8107 z"
       id="path3015"
       inkscape:connector-curvature="0"
       sodipodi:nodetypes="sccccsccs" />
    <path
       style="fill:#000000"
       id="path3019"
       d="m 48.477802,76.173675 c 0.04402,-0.247032 0.06115,-0.497657 0.07505,-0.747852 0.0099,-0.233939 0.01089,-0.468105 0.0105,-0.702212 5.22e-4,-0.229124 8.08e-4,-0.458254 5e-6,-0.687379 2.54e-4,-0.235023 6.79e-4,-0.470048 -8.4e-5,-0.705071 -6.77e-4,-0.228068 2.5e-4,-0.456139 1.89e-4,-0.684208 -0.0122,-0.244029 0.0028,-0.480666 0.05867,-0.718251 0.06379,-0.227437 0.09254,-0.461346 0.107932,-0.696362 0.01261,-0.22945 0.01014,-0.459269 0.0112,-0.688947 -0.0017,-0.254197 0.002,-0.508356 0.0011,-0.762552 -1.94e-4,-0.253989 -0.0014,-0.507971 -0.0019,-0.761959 5.14e-4,-0.228794 -0.0014,-0.457596 -3.89e-4,-0.686388 -0.003,-0.228686 0.0073,-0.457604 -0.0075,-0.685933 -0.02004,-0.236208 -0.06441,-0.468239 -0.105149,-0.701326 -0.05832,-0.197398 -0.10757,-0.394512 -0.131865,-0.599031 -0.01525,-0.219731 -0.01131,-0.434888 -0.06415,-0.64953 -0.06797,-0.220974 -0.100843,-0.448241 -0.1203,-0.677835 -0.0141,-0.234153 -0.01322,-0.468777 -0.01423,-0.70324 5.97e-4,-0.253713 0.0029,-0.507409 0.0021,-0.761124 6.3e-5,-0.246884 2.31e-4,-0.49377 -7.21e-4,-0.740653 -8.12e-4,-0.228531 1.07e-4,-0.457065 3.6e-5,-0.685597 -3.32e-4,-0.234481 3.43e-4,-0.468962 1.69e-4,-0.703444 0.01632,-0.232875 0.0504,-0.463947 0.06993,-0.696655 0.0059,-0.22985 0.02278,-0.457563 0.05394,-0.685321 0.02883,-0.23004 0.08158,-0.455578 0.110435,-0.685668 0.02533,-0.224333 0.02871,-0.450305 0.03088,-0.675812 0.0021,-0.229584 -5.31e-4,-0.45917 1.19e-4,-0.688754 -7.6e-5,-0.230838 -0.001,-0.461681 -8.3e-5,-0.692518 -9.65e-4,-0.227328 -1.45e-4,-0.454654 -7.35e-4,-0.681982 -4.8e-4,-0.225506 5.06e-4,-0.451014 4.86e-4,-0.676522 -3.91e-4,-0.2261 -9.99e-4,-0.452209 5.6e-5,-0.678308 2.69e-4,-0.234082 -7e-4,-0.468168 2.3e-4,-0.702249 0.0014,-0.104588 0.0181,-0.207843 0.03337,-0.311006 0,0 1.173719,-0.575186 1.173719,-0.575186 l 0,0 c -0.01632,0.09819 -0.03459,0.196096 -0.04668,0.294934 9.34e-4,0.234002 -4.2e-5,0.46801 2.3e-4,0.702014 0.0011,0.226081 4.43e-4,0.452171 5.5e-5,0.678253 -2.2e-5,0.225344 9.61e-4,0.450689 4.75e-4,0.676032 -5.92e-4,0.227559 2.16e-4,0.455114 -6.8e-4,0.682672 0.001,0.230666 2.33e-4,0.461338 7.71e-4,0.692005 0.0013,0.230005 -2.7e-5,0.460027 7e-5,0.690032 -0.0015,0.229584 -0.0016,0.459723 -0.02393,0.68845 -0.02622,0.231485 -0.07518,0.457931 -0.108365,0.687866 -0.03308,0.225528 -0.06065,0.449203 -0.05889,0.6778 -0.01409,0.230667 -0.04564,0.459411 -0.07481,0.688568 -1.73e-4,0.234422 5.03e-4,0.468844 1.77e-4,0.703266 -6.6e-5,0.228525 8.66e-4,0.457051 3.5e-5,0.685574 -9.88e-4,0.247259 -8.81e-4,0.494521 -0.0012,0.741781 -0.0012,0.25325 1.48e-4,0.506494 1.3e-4,0.759745 -7.47e-4,0.23143 -0.0011,0.463061 0.01044,0.694261 0.01456,0.222588 0.04238,0.443632 0.108169,0.657726 0.01134,0.04133 0.05407,0.191273 0.05948,0.233885 0.01799,0.141608 -0.0084,0.289288 0.016,0.43102 0.02064,0.202543 0.06641,0.398501 0.124819,0.593526 0.04116,0.236516 0.08956,0.471174 0.110647,0.710809 0.02564,0.230863 0.0093,0.463703 0.01368,0.695714 9.84e-4,0.228922 -9.22e-4,0.457853 -3.93e-4,0.686776 -4.86e-4,0.254539 -0.0017,0.509074 -0.0015,0.763614 -4.87e-4,0.253534 0.0038,0.507014 0.003,0.76055 0.0011,0.232062 7e-6,0.464281 -0.0085,0.696199 -0.01276,0.241593 -0.03302,0.484011 -0.09796,0.718155 -0.05974,0.228798 -0.09121,0.451604 -0.07173,0.689406 -6.3e-5,0.227999 8.56e-4,0.456 2.01e-4,0.683998 -7.25e-4,0.234956 -2.56e-4,0.469915 2.95e-4,0.704869 -4.73e-4,0.229124 4.65e-4,0.458247 7.93e-4,0.68737 -0.0013,0.23636 -0.0012,0.472805 -0.01057,0.709021 -0.01044,0.252208 -0.03457,0.503332 -0.06069,0.754354 0,0 -1.176608,0.57863 -1.176608,0.57863 z"
       inkscape:connector-curvature="0"
       transform="translate(0,952.36218)" />
    <path
       style="fill:#000000"
       id="path3021"
       d="m 48.477802,59.556666 c 0.05377,-0.318261 0.06723,-0.641751 0.07831,-0.96382 0.01055,-0.327378 0.0129,-0.655007 0.01135,-0.982536 0.003,-0.356409 1.31e-4,-0.712831 0.0031,-1.069233 2.2e-4,-0.368717 -0.0032,-0.737367 -8.17e-4,-1.106086 -0.0022,-0.328111 -0.0021,-0.656221 -0.003,-0.984332 -8.72e-4,-0.310477 0.0015,-0.62093 -5.75e-4,-0.931406 -0.0012,-0.283971 -5.81e-4,-0.567946 -4.81e-4,-0.851926 -5.25e-4,-0.256266 -0.0033,-0.512552 -8.56e-4,-0.768811 0.0018,-0.274842 8.96e-4,-0.549707 -6.59e-4,-0.82455 -3.29e-4,-0.241676 -1.8e-5,-0.483352 -8.89e-4,-0.725027 -7.36e-4,-0.227775 2.05e-4,-0.455552 1.49e-4,-0.683328 0.02256,-0.258983 -0.05186,-0.506267 -0.09852,-0.757981 -0.05693,-0.312922 -0.0632,-0.631632 -0.07091,-0.948657 -0.0072,-0.294236 -0.0071,-0.588543 -0.0052,-0.882833 -7e-5,-0.27113 -0.0028,-0.542247 -2.29e-4,-0.81337 -0.0125,-0.285777 0.02257,-0.569157 0.05066,-0.852818 0.01782,-0.307078 0.04258,-0.612823 0.07532,-0.918697 0.07015,-0.300479 0.147255,-0.596997 0.189493,-0.903295 0.01901,-0.258548 0.05574,-0.514965 0.08713,-0.772188 0.02731,-0.228697 0.03334,-0.459181 0.03623,-0.689258 0.0018,-0.226852 0.0021,-0.453712 0.0018,-0.680571 5.29e-4,-0.229717 -0.0015,-0.45944 -6.52e-4,-0.689156 0.0027,-0.232576 -0.0075,-0.465504 0.0083,-0.697638 0.04599,-0.236601 0.106661,-0.468765 0.139464,-0.707971 0.02256,-0.235072 0.02408,-0.470464 0.05327,-0.704941 0.02782,-0.308995 0.07395,-0.61575 0.11144,-0.923625 0.03256,-0.290171 0.03878,-0.582467 0.04134,-0.874188 0.002,-0.243498 0.0015,-0.487022 3.16e-4,-0.730525 -0.0011,-0.227638 -3.09e-4,-0.455281 -4.44e-4,-0.682922 8.9e-4,-0.265442 0.0017,-0.530868 0.0021,-0.796318 0.0025,-0.293529 0.001,-0.587095 -9.43e-4,-0.880627 -0.0016,-0.236869 -9.17e-4,-0.473746 -0.0011,-0.710619 -4.25e-4,-0.234279 2.68e-4,-0.468559 9.9e-5,-0.702839 7e-4,-0.230668 -0.0013,-0.461343 -3.27e-4,-0.692009 2.33e-4,-0.230767 -6.07e-4,-0.461538 3.7e-4,-0.692303 1.77e-4,-0.235367 -8.34e-4,-0.470737 8e-5,-0.706102 0.0032,-0.233927 -0.008,-0.468312 0.0069,-0.701865 0.02026,-0.223926 0.05961,-0.444091 0.105305,-0.663902 0.01755,-0.211363 0.07585,-0.408468 0.144616,-0.60737 0.06974,-0.208246 0.11668,-0.421864 0.161529,-0.63641 0,0 1.173444,-0.565726 1.173444,-0.565726 l 0,0 c -0.05147,0.215285 -0.08253,0.435295 -0.152748,0.646353 -0.06176,0.197376 -0.151473,0.381021 -0.153865,0.593255 -0.03843,0.217657 -0.0956,0.431149 -0.110492,0.652879 -0.03038,0.228898 -0.0065,0.461169 -0.01427,0.69154 9.17e-4,0.235338 -1.01e-4,0.470682 7.9e-5,0.706021 9.81e-4,0.23064 1.35e-4,0.461285 3.71e-4,0.691926 9.55e-4,0.230778 -0.001,0.461563 -3.27e-4,0.692342 -1.69e-4,0.234247 5.23e-4,0.468493 9.9e-5,0.702739 -2.03e-4,0.237254 5.06e-4,0.474512 -0.0011,0.711762 -0.002,0.293854 -0.0034,0.587742 -9.53e-4,0.881593 3.68e-4,0.264711 0.0012,0.529398 0.0022,0.794102 1.1e-5,0.227554 0.0011,0.455107 6.59e-4,0.682659 -5.61e-4,0.244517 4.16e-4,0.489032 -0.0019,0.733543 -0.0055,0.29622 -0.01326,0.592463 -0.0384,0.887806 -0.03519,0.30765 -0.09301,0.61242 -0.109073,0.922162 -0.02519,0.234654 -0.03686,0.46861 -0.0509,0.704328 -0.02472,0.239089 -0.07341,0.473557 -0.141026,0.704264 -0.0253,0.227972 -0.0076,0.457851 -0.01271,0.686886 0.001,0.229744 -8.32e-4,0.459495 2.56e-4,0.68924 2.09e-4,0.227309 0.0018,0.45463 -3.14e-4,0.681933 -0.0033,0.234317 -0.0064,0.468871 -0.03026,0.702229 -0.03226,0.258611 -0.07807,0.515362 -0.09103,0.77606 -0.0416,0.305344 -0.09753,0.607875 -0.194159,0.901064 -0.03153,0.304997 -0.06374,0.609101 -0.07267,0.915874 -0.02536,0.280374 -0.07119,0.559424 -0.05604,0.841868 0.0023,0.271534 -0.001,0.543051 -0.0019,0.814586 0.0011,0.293872 -7.32e-4,0.587723 0.0013,0.881594 0.0054,0.310057 0.01407,0.621482 0.06499,0.928026 0.04783,0.258126 0.135668,0.511033 0.114442,0.776555 -5.7e-5,0.227725 8.85e-4,0.455452 1.48e-4,0.683176 -8.68e-4,0.241977 -5.61e-4,0.483955 -8.88e-4,0.725933 -0.0015,0.275067 -0.0024,0.550156 -6.59e-4,0.825222 0.0024,0.25655 -3.58e-4,0.513126 -8.57e-4,0.769684 1.01e-4,0.284142 7.2e-4,0.568281 -4.8e-4,0.852415 -0.002,0.310673 2.83e-4,0.621323 -5.81e-4,0.931996 -8.91e-4,0.329133 -8.18e-4,0.658266 -0.003,0.987399 0.0025,0.368913 -9.51e-4,0.737761 -4.38e-4,1.106672 0.0033,0.355291 0.0011,0.710607 0.0039,1.065907 -0.0025,0.329025 -4.93e-4,0.658083 -0.0097,0.98703 -0.01349,0.323161 -0.03239,0.646043 -0.05743,0.968525 0,0 -1.176608,0.578631 -1.176608,0.578631 z"
       inkscape:connector-curvature="0"
       transform="translate(0,952.36218)" />
    <path
       style="fill:#000000"
       id="path3023"
       d="m 48.98239,29.168841 c -0.109236,-0.376898 -0.166126,-0.766208 -0.246703,-1.149735 -0.08667,-0.420091 -0.112673,-0.847398 -0.208394,-1.265381 -0.118326,-0.376651 -0.172138,-0.763997 -0.199617,-1.156385 -0.02154,-0.369016 -0.02699,-0.73893 -0.02672,-1.108525 -7.6e-4,-0.293763 -0.0012,-0.587524 -0.002,-0.881286 0.0022,-0.272705 0.0015,-0.54544 -4e-6,-0.81815 -0.0013,-0.233847 -4.97e-4,-0.4677 -6.55e-4,-0.701549 7.31e-4,-0.229488 -0.0012,-0.458983 -2.38e-4,-0.688469 2.49e-4,-0.230699 -5.89e-4,-0.461403 3.89e-4,-0.6921 -9.24e-4,-0.227321 -1.08e-4,-0.454639 -7e-4,-0.68196 4.94e-4,-0.2332 9.94e-4,-0.466404 2.86e-4,-0.699604 4.41e-4,-0.230718 8.5e-5,-0.461436 6e-6,-0.692154 -2.74e-4,-0.232093 4.73e-4,-0.464186 3.39e-4,-0.696279 -4.07e-4,-0.235557 2.42e-4,-0.471114 5.1e-5,-0.706671 0.0026,-0.22197 -0.0079,-0.44444 0.0054,-0.666107 0.03464,-0.197104 0.0526,-0.396313 0.07846,-0.59458 0.03375,-0.180472 0.05855,-0.361901 0.07418,-0.544778 0,0 1.166703,-0.582763 1.166703,-0.582763 l 0,0 c -0.0139,0.185493 -0.03077,0.370894 -0.07004,0.553085 -0.03429,0.194856 -0.03139,0.395199 -0.07843,0.588511 -0.03592,0.215801 -0.0046,0.437366 -0.01572,0.655289 -1.91e-4,0.23554 4.57e-4,0.471079 5e-5,0.706619 -1.33e-4,0.231978 6.13e-4,0.463955 3.4e-4,0.695933 -7.9e-5,0.230716 -4.36e-4,0.461432 6e-6,0.692148 -7.06e-4,0.233103 -2.11e-4,0.46621 2.86e-4,0.699313 -5.91e-4,0.227558 2.23e-4,0.455114 -7e-4,0.682673 9.81e-4,0.230565 1.36e-4,0.461136 3.89e-4,0.691703 9.72e-4,0.229564 -9.67e-4,0.459136 -2.24e-4,0.688701 -1.49e-4,0.23408 6.52e-4,0.468163 -6.59e-4,0.70224 -0.0015,0.272937 -0.0024,0.545893 -8.91e-4,0.818829 -0.0018,0.294874 -0.004,0.589742 -0.0053,0.88462 8.96e-4,0.367959 -0.0037,0.73615 0.01659,1.103751 0.02683,0.385289 0.07654,0.766737 0.189148,1.137724 0.03851,0.152782 0.06694,0.246981 0.08811,0.402386 0.03936,0.289009 0.04716,0.583326 0.118515,0.86795 0.07995,0.374528 0.138617,0.756488 0.261194,1.119691 0,0 -1.14351,0.63531 -1.14351,0.63531 z"
       inkscape:connector-curvature="0"
       transform="translate(0,952.36218)" />
  </g>
</svg>
