<?xml version="1.0" encoding="UTF-8" standalone="no"?>
<!-- Created with Inkscape (http://www.inkscape.org/) -->

<svg
   xmlns:dc="http://purl.org/dc/elements/1.1/"
   xmlns:cc="http://creativecommons.org/ns#"
   xmlns:rdf="http://www.w3.org/1999/02/22-rdf-syntax-ns#"
   xmlns:svg="http://www.w3.org/2000/svg"
   xmlns="http://www.w3.org/2000/svg"
   xmlns:sodipodi="http://sodipodi.sourceforge.net/DTD/sodipodi-0.dtd"
   xmlns:inkscape="http://www.inkscape.org/namespaces/inkscape"
   width="100"
   height="100"
   id="svg2"
   version="1.1"
   inkscape:version="0.48.4 r9939"
   sodipodi:docname="New document 1">
  <defs
     id="defs4" />
  <sodipodi:namedview
     id="base"
     pagecolor="#ffffff"
     bordercolor="#666666"
     borderopacity="1.0"
     inkscape:pageopacity="0.0"
     inkscape:pageshadow="2"
     inkscape:zoom="1.4142136"
     inkscape:cx="132.95484"
     inkscape:cy="28.19795"
     inkscape:document-units="px"
     inkscape:current-layer="layer1"
     showgrid="false"
     inkscape:window-width="1366"
     inkscape:window-height="716"
     inkscape:window-x="-8"
     inkscape:window-y="-8"
     inkscape:window-maximized="1"
     showguides="true"
     inkscape:guide-bbox="true">
    <sodipodi:guide
       orientation="1,0"
       position="50.011719,90.09375"
       id="guide2986" />
    <sodipodi:guide
       orientation="0,1"
       position="-4.8671875,90"
       id="guide3021" />
  </sodipodi:namedview>
  <metadata
     id="metadata7">
    <rdf:RDF>
      <cc:Work
         rdf:about="">
        <dc:format>image/svg+xml</dc:format>
        <dc:type
           rdf:resource="http://purl.org/dc/dcmitype/StillImage" />
        <dc:title></dc:title>
      </cc:Work>
    </rdf:RDF>
  </metadata>
  <g
     inkscape:label="Layer 1"
     inkscape:groupmode="layer"
     id="layer1"
     transform="translate(0,-952.36218)">
    <path
       style="fill:#000000"
       d="m 50.03125,995.49499 c -10.11841,0 -18.34375,8.32321 -18.34375,18.56251 0,10.2392 8.22534,18.5312 18.34375,18.5312 10.11841,0 18.3125,-8.292 18.3125,-18.5312 0,-10.2393 -8.19409,-18.56251 -18.3125,-18.56251 z m -0.0625,16.31251 c 3.14112,0 5.6875,2.4344 5.6875,5.4375 0,3.003 -2.54638,5.4375 -5.6875,5.4375 -3.14112,0 -5.6875,-2.4345 -5.6875,-5.4375 0,-3.0031 2.54638,-5.4375 5.6875,-5.4375 z"
       id="path2982"
       inkscape:connector-curvature="0" />
    <path
       style="fill:#000000"
       d="m 33.567523,1005.8568 c 0.05881,-0.1644 3.783272,-10.01977 8.276575,-21.90084 l 8.169642,-21.60181 0.02252,20.04042 c 0.01239,11.02235 0.0078,20.05523 -0.01022,20.07323 -0.04283,0.043 -16.303778,3.6879 -16.452002,3.6879 -0.09043,0 -0.09175,-0.061 -0.0065,-0.2989 z"
       id="path2992"
       inkscape:connector-curvature="0" />
    <path
       inkscape:connector-curvature="0"
       id="path2994"
       d="m 66.458812,1005.8578 c -0.05881,-0.1644 -3.783272,-10.01977 -8.276576,-21.90072 l -8.169642,-21.60181 -0.02252,20.04042 c -0.01239,11.02223 -0.0078,20.05511 0.01022,20.07311 0.04283,0.043 16.303778,3.6879 16.452003,3.6879 0.09043,0 0.09175,-0.061 0.0065,-0.2989 z"
       style="fill:#000000" />
    <path
       style="fill:#000000"
       id="path3009"
       d="m 50.041444,962.44214 c -4.29e-4,0.0126 -3.24e-4,0.0252 -2.47e-4,0.0378 2.4e-5,0.0109 6.6e-5,0.0219 8.3e-5,0.0328 2.1e-5,0.0103 -1.2e-5,0.0205 -6e-6,0.0308 2.2e-5,0.01 4.9e-5,0.02 3e-6,0.0301 6e-6,0.0102 -1.1e-5,0.0204 3.1e-5,0.0305 -1.6e-5,0.0101 -4.4e-5,0.0203 -1.6e-5,0.0304 -1.8e-5,0.0104 -3.8e-5,0.0208 -5e-6,0.0312 -4.56e-4,0.0101 3.27e-4,0.02 0.0016,0.0299 4.81e-4,0.0104 0.0033,0.0203 0.0059,0.0303 0.0035,0.014 0.0033,0.0285 0.0037,0.0428 4.07e-4,0.0159 1.99e-4,0.0317 3.03e-4,0.0476 -4.2e-5,0.0165 -2.08e-4,0.033 -8.8e-5,0.0494 1.63e-4,0.0137 6.9e-5,0.0274 1.06e-4,0.0411 8.2e-5,0.0128 6.6e-5,0.0256 -3.1e-5,0.0384 -2.77e-4,0.0172 1.86e-4,0.0343 -5.68e-4,0.0515 -0.0012,0.016 -0.0024,0.0321 -0.0029,0.0481 -3.23e-4,0.0125 -3.43e-4,0.025 -3.22e-4,0.0375 1.24e-4,0.0121 -1.1e-4,0.0242 -1.25e-4,0.0363 -2.23e-4,0.0203 -4.38e-4,0.0406 -2.72e-4,0.061 1.35e-4,0.0148 2.74e-4,0.0296 4.09e-4,0.0444 4.2e-5,0.0106 2.4e-5,0.0212 6.1e-5,0.0318 -1.8e-5,0.0101 -4e-6,0.0203 -10e-7,0.0304 6.25e-4,0.009 -7.84e-4,0.0181 -0.0021,0.0271 -7.99e-4,0.01 -0.0026,0.0191 -0.0039,0.0287 -2.96e-4,0.002 -5.93e-4,0.003 -8.89e-4,0.005 0,0 -0.05189,0.0251 -0.05189,0.0251 l 0,0 c 3.63e-4,-0.002 7.27e-4,-0.003 0.0011,-0.005 0.0012,-0.01 0.0033,-0.019 0.0038,-0.0286 0.0012,-0.009 0.0033,-0.0175 0.0026,-0.0265 2e-6,-0.0101 1.6e-5,-0.0203 -2e-6,-0.0304 3.7e-5,-0.0106 1.9e-5,-0.0212 6.2e-5,-0.0319 1.35e-4,-0.0149 2.74e-4,-0.0299 4.08e-4,-0.0448 1.63e-4,-0.0202 -4.7e-5,-0.0405 -2.88e-4,-0.0607 -2.7e-5,-0.0121 -2.91e-4,-0.0241 -1.6e-4,-0.0362 6.4e-5,-0.0126 1.45e-4,-0.0253 6.08e-4,-0.0379 5.88e-4,-0.0161 0.0015,-0.0322 0.0031,-0.0483 10e-4,-0.017 3.23e-4,-0.034 3.66e-4,-0.051 -9.7e-5,-0.0128 -1.12e-4,-0.0256 -3.1e-5,-0.0384 3.7e-5,-0.0137 -5.6e-5,-0.0275 1.18e-4,-0.0412 1.34e-4,-0.0165 -9e-6,-0.0329 0,-0.0494 1.41e-4,-0.0158 4.9e-5,-0.0317 -1.08e-4,-0.0475 -2.86e-4,-0.0138 -4.88e-4,-0.0279 -0.0036,-0.0414 -0.0026,-0.0102 -0.0061,-0.0202 -0.0063,-0.0309 -0.0013,-0.0102 -0.0026,-0.0203 -0.0019,-0.0305 3.3e-5,-0.0104 1.3e-5,-0.0208 -5e-6,-0.0312 2.8e-5,-0.0101 10e-7,-0.0203 -1.5e-5,-0.0304 4.1e-5,-0.0102 2.4e-5,-0.0204 3e-5,-0.0306 -4.6e-5,-0.01 -1.8e-5,-0.02 4e-6,-0.0301 6e-6,-0.0103 -2.8e-5,-0.0205 -6e-6,-0.0308 1.6e-5,-0.011 5.9e-5,-0.0219 8.3e-5,-0.0329 7.5e-5,-0.0125 1.86e-4,-0.025 -2.47e-4,-0.0376 0,0 0.05164,-0.0263 0.05164,-0.0263 z"
       inkscape:connector-curvature="0" />
    <path
       style="fill:#000000"
       id="path3011"
       d="m 50.117755,963.36318 c -0.0086,0.0474 -0.01119,0.0956 -0.01367,0.14359 -0.002,0.05 -0.0018,0.1 -0.0017,0.15 0.0032,0.0406 0.0071,0.0814 0.01411,0.12155 0.0089,0.0354 0.01292,0.0717 0.01559,0.10801 0.0019,0.0393 0.0088,0.0781 0.0128,0.11729 0.0036,0.0424 0.0041,0.0849 0.0046,0.12738 7.4e-5,0.041 -10e-4,0.0819 0.0039,0.12264 0.0076,0.0523 0.0087,0.10522 0.0097,0.15794 8.89e-4,0.0553 0.0016,0.11069 0.0019,0.16605 1.76e-4,0.0439 3.64e-4,0.0878 -1.92e-4,0.13165 -9.06e-4,0.067 -0.0026,0.13382 0.0044,0.20056 0.0086,0.0674 0.01831,0.13467 0.02345,0.20246 0.0033,0.0442 0.0036,0.0886 0.004,0.13287 0.0014,0.0398 6.39e-4,0.0784 -0.01006,0.1169 -0.0103,0.0377 -0.0208,0.0752 -0.03236,0.11249 -0.0082,0.0376 -0.0257,0.0719 -0.03825,0.10804 -0.01277,0.038 -0.02324,0.0768 -0.03231,0.11579 -0.0084,0.0292 -0.01962,0.0573 -0.02822,0.0864 0,0 -0.207717,0.0988 -0.207717,0.0988 l 0,0 c 0.0077,-0.029 0.01676,-0.0575 0.02883,-0.085 0.0076,-0.0397 0.01862,-0.0789 0.03046,-0.11752 0.01095,-0.037 0.03046,-0.0704 0.03904,-0.10806 0.01121,-0.0373 0.02292,-0.0743 0.03187,-0.11218 6.88e-4,-0.002 0.01021,-0.031 0.01075,-0.0333 0.0057,-0.0254 0.0011,-0.0519 0.0026,-0.0776 1.81e-4,-0.0441 9e-5,-0.0882 -0.002,-0.13225 -0.0039,-0.0678 -0.01096,-0.13537 -0.02088,-0.20259 -0.0082,-0.067 -0.0085,-0.13413 -0.0082,-0.20157 -5.22e-4,-0.0438 -2.3e-4,-0.0877 -1.8e-5,-0.13153 3.05e-4,-0.0554 8.31e-4,-0.11086 -3e-4,-0.16628 -0.0015,-0.0518 -0.0028,-0.10366 -0.01049,-0.15496 -0.0053,-0.0416 -0.0062,-0.083 -0.0052,-0.12496 -1.31e-4,-0.0419 -5.38e-4,-0.0838 -0.0037,-0.12562 -0.0035,-0.0394 -0.01104,-0.0782 -0.01354,-0.11767 -0.002,-0.0355 -0.0055,-0.071 -0.01427,-0.10558 -0.0082,-0.0414 -0.0097,-0.0839 -0.01536,-0.12574 2.55e-4,-0.0504 8.12e-4,-0.10077 0.002,-0.15115 0.0014,-0.0483 0.0052,-0.0965 0.01032,-0.14452 0,0 0.207997,-0.10229 0.207997,-0.10229 z"
       inkscape:connector-curvature="0" />
    <path
       style="fill:#000000"
       id="path3013"
       d="m 50.112798,965.22841 c -0.0012,0.12702 -0.01475,0.25344 -0.02272,0.38014 -0.01111,0.1699 -0.01185,0.34023 -0.01219,0.51041 2.92e-4,0.10548 0.0017,0.21095 0.0018,0.31643 6.91e-4,0.0808 4.49e-4,0.16152 6.91e-4,0.24229 6.25e-4,0.0844 -0.0029,0.16886 0.0024,0.25311 0.01092,0.0828 0.0194,0.16591 0.02474,0.24931 0.0048,0.0803 -0.0018,0.16088 0.0144,0.24001 0.02208,0.0811 0.0375,0.1631 0.04564,0.24667 0.0074,0.0801 0.004,0.16068 0.0096,0.24086 0.01133,0.0815 0.01986,0.16331 0.02402,0.24551 0.0049,0.0829 0.0013,0.16605 0.0069,0.24889 0.01112,0.0805 0.01957,0.16113 0.02452,0.24223 0.0029,0.10634 0.0029,0.21274 0.0024,0.3191 -1.56e-4,0.1202 -4.13e-4,0.2404 2.51e-4,0.3606 0.0035,0.11142 6.52e-4,0.22083 -0.02061,0.33033 -0.01946,0.0953 -0.03597,0.19131 -0.05123,0.2874 -0.01475,0.0989 -0.01902,0.19876 -0.02074,0.29856 0.0022,0.10591 -0.0044,0.21117 -0.01427,0.31652 -0.01142,0.10345 -0.01391,0.20752 -0.01624,0.31147 -0.0013,0.0851 -7.46e-4,0.17019 -0.001,0.25529 4.31e-4,0.0802 2.05e-4,0.16048 4.48e-4,0.24072 0.0053,0.089 0.01796,0.17728 0.02454,0.26623 0.0013,0.0671 0.0096,0.13339 0.01929,0.1997 0,0 -0.407723,0.21508 -0.407723,0.21508 l 0,0 c -0.0094,-0.0675 -0.02118,-0.13461 -0.02023,-0.20305 -0.0056,-0.0899 -0.01606,-0.17922 -0.02669,-0.26862 1.75e-4,-0.0803 -1.75e-4,-0.16067 1.06e-4,-0.241 -3.6e-4,-0.0855 -1.1e-4,-0.17106 0.0014,-0.25657 0.002,-0.10516 0.0073,-0.21029 0.0154,-0.31516 0.01133,-0.10424 0.01912,-0.20812 0.0158,-0.3131 0.0022,-0.10153 0.0029,-0.20337 0.01834,-0.304 0.01369,-0.097 0.0302,-0.19377 0.04987,-0.28965 0.02391,-0.10676 0.03198,-0.21274 0.02562,-0.32231 7.83e-4,-0.1203 7.59e-4,-0.2406 5.34e-4,-0.3609 -7.75e-4,-0.10505 -2.53e-4,-0.21015 -0.0049,-0.31511 -0.0038,-0.0807 -0.01137,-0.16109 -0.02319,-0.24108 -0.0092,-0.0831 -0.0031,-0.16698 -0.0078,-0.25047 -0.004,-0.0815 -0.01061,-0.16284 -0.02334,-0.24355 -0.0094,-0.08 -0.0027,-0.16078 -0.0097,-0.24107 -0.0066,-0.0817 -0.01972,-0.16249 -0.04273,-0.24137 -0.01962,-0.0813 -0.01569,-0.16339 -0.01832,-0.24654 -0.0039,-0.0832 -0.01128,-0.16605 -0.02325,-0.2485 -0.009,-0.085 -0.003,-0.17075 -0.0051,-0.25618 1.93e-4,-0.0809 -1.38e-4,-0.16188 3.9e-4,-0.24282 -5.4e-5,-0.10646 0.0012,-0.21291 0.003,-0.31935 0.0025,-0.17099 0.0063,-0.34195 0.01183,-0.51287 0.0071,-0.12422 0.02022,-0.24861 0.01493,-0.3731 0,0 0.413096,-0.21049 0.413096,-0.21049 z"
       inkscape:connector-curvature="0" />
    <path
       style="fill:#000000"
       id="path3015"
       d="m 49.962226,963.12918 c -0.0021,-0.0188 -0.0059,-0.0375 -0.01049,-0.0558 -0.0057,-0.0257 -0.01159,-0.0514 -0.01542,-0.0775 -0.0026,-0.0203 -0.0041,-0.0407 -0.0047,-0.0611 -9.15e-4,-0.0183 6.23e-4,-0.0365 0.003,-0.0546 0.0048,-0.0224 0.01308,-0.0439 0.01992,-0.0658 0.0044,-0.0126 0.0088,-0.0251 0.01246,-0.0379 0.0026,-0.01 0.0032,-0.0203 0.0035,-0.0305 2.11e-4,-0.0101 1.28e-4,-0.0203 9.7e-5,-0.0304 -4.4e-5,-0.0103 -2.1e-5,-0.0205 -3.4e-5,-0.0308 -1.25e-4,-0.0273 -0.0055,-0.0155 0.05142,-0.0333 0.0021,-6.5e-4 -1.49e-4,0.004 -2.26e-4,0.006 -1.36e-4,0.004 -2.76e-4,0.008 -4.14e-4,0.0113 -0.0012,0.0494 3.48e-4,0.0988 0.0014,0.14824 -3.38e-4,0.0507 0.0019,0.10115 0.0049,0.15168 0.0019,0.0505 0.0034,0.10104 0.0068,0.1515 0.0031,0.038 0.0068,0.0759 0.0089,0.11389 3.02e-4,0.0287 -0.0014,0.0574 -0.002,0.0861 -5.44e-4,0.0274 -2.29e-4,0.055 0.0028,0.0823 0.0019,0.009 6.16e-4,0.005 0.0035,0.0115 0,0 -0.05023,0.028 -0.05023,0.028 l 0,0 c -0.003,-0.008 -0.0017,-0.004 -0.0035,-0.0133 -0.0022,-0.0277 -0.0022,-0.0556 -0.0022,-0.0833 6.29e-4,-0.0286 0.0018,-0.0571 0.0021,-0.0857 -0.0014,-0.0383 -0.0039,-0.0765 -0.0071,-0.11472 -0.0029,-0.0505 -0.0048,-0.10091 -0.007,-0.15139 -0.0014,-0.0241 -0.0031,-0.0483 -0.0036,-0.0724 -5.83e-4,-0.0266 2.14e-4,-0.0533 -6.31e-4,-0.0799 -6.81e-4,-0.049 -0.0024,-0.0979 -0.0043,-0.14686 -1.38e-4,-0.004 -2.78e-4,-0.007 -4.14e-4,-0.0109 -7.8e-5,-0.002 -0.0019,-0.005 -2.26e-4,-0.006 0.06044,-0.0427 0.05126,-0.0471 0.05142,-0.0191 -10e-7,0.0103 4e-5,0.0205 5.9e-5,0.0307 2.7e-5,0.0102 7.7e-5,0.0204 -1.9e-5,0.0305 -2.57e-4,0.0107 -5.9e-4,0.0214 -0.0029,0.0318 -0.0035,0.0131 -0.0082,0.0258 -0.01298,0.0385 -0.0034,0.01 -0.0064,0.0199 -0.0099,0.0299 -4.72e-4,10e-4 -0.0078,0.0218 -0.0082,0.0232 -0.0011,0.004 -0.0018,0.008 -0.0027,0.0119 -0.002,0.0178 -0.0038,0.0356 -0.0027,0.0536 2e-4,0.0204 7.59e-4,0.0408 0.0034,0.061 0.0037,0.0259 0.0095,0.0514 0.01536,0.0768 0.0048,0.0184 0.009,0.0371 0.01222,0.0558 0,0 -0.05118,0.0268 -0.05118,0.0268 z"
       inkscape:connector-curvature="0" />
    <path
       style="fill:#000000"
       id="path3017"
       d="m 47.528961,998.41829 c 0.07926,-1.94933 0.05476,-3.90023 0.03888,-5.85042 -0.07473,-0.97994 0.05496,-2.06726 -0.288064,-3.01176 1.558364,-0.7733 3.050441,-1.6978 4.675091,-2.31989 0.161125,-0.0617 0.02591,0.34413 0.03483,0.51643 0.01223,0.23632 0.0196,0.47286 0.02863,0.70933 0.03459,0.90633 0.05055,1.81273 0.06901,2.71952 0.136386,1.50418 0.127728,3.03514 0.452286,4.51536 0.02967,0.0875 0.05151,0.178 0.08902,0.2624 0.110863,0.24942 0.200176,-0.43943 -0.102322,-0.28936 -5.554259,2.75537 -4.527319,4.2424 -4.329102,2.03328 0.06747,-1.09241 0.05469,-2.18853 0.04836,-3.28259 -0.01719,-0.9623 0.06138,-1.92996 -0.125185,-2.87863 -0.256958,-0.95523 -0.420629,-1.92503 -0.518189,-2.9082 -0.07127,-0.89974 -0.08009,-1.80363 -0.079,-2.70582 -7.23e-4,-0.90418 0.0037,-1.80832 0.0016,-2.71251 0.02147,-0.85623 -0.03054,-1.71424 0.02272,-2.56928 0.191092,-0.70742 0.423879,-1.39589 0.592571,-2.11158 0.244471,-0.81878 0.340859,-1.66549 0.405094,-2.51404 0.08045,-0.82946 0.05962,-1.62129 -0.181354,-2.41844 -0.04672,-0.0988 -0.07991,-0.20524 -0.140167,-0.29643 -0.03155,-0.0478 -0.180033,-0.0847 -0.129894,-0.11226 4.671902,-2.57084 4.148074,-3.99662 4.704729,-1.97468 0,0 -4.558902,2.53015 -4.558902,2.53015 l 0,0 c -0.07126,-0.16077 -0.354447,-0.37679 -0.213777,-0.48233 3.36608,-2.52554 3.919537,-4.33918 4.920629,-2.17461 0.275638,0.87952 0.357523,1.66616 0.259862,2.58916 -0.04042,0.87369 -0.122321,1.75264 -0.353182,2.59902 -0.191179,0.68831 -0.254804,1.41057 -0.61399,2.04592 -0.154951,0.82606 -0.02031,1.6847 -0.06442,2.52093 -0.0045,0.90415 -0.0046,1.80827 -0.0056,2.71242 0.0052,0.88918 -0.0033,1.77921 0.05598,2.66702 0.07551,0.96454 0.217851,1.91926 0.485958,2.85126 0.232196,0.98403 0.169086,1.97664 0.166871,2.98233 -0.0052,1.09712 -0.0098,2.19438 -2.61e-4,3.29145 -0.0028,0.11362 -0.0058,0.22723 -0.0084,0.34085 -0.0022,0.0996 0.07485,0.24025 -0.0058,0.29872 -1.642971,1.19157 -4.296665,4.73899 -4.917783,2.15754 -0.256692,-1.53181 -0.285105,-3.08892 -0.40971,-4.63502 -0.02242,-0.8927 -0.04514,-1.78572 -0.107324,-2.6768 -0.01571,-0.22517 -0.03481,-0.45014 -0.05797,-0.67467 -0.01506,-0.14598 -0.177506,-0.35336 -0.05665,-0.43662 1.461802,-1.00708 3.063831,-1.79368 4.595747,-2.69052 0.237599,1.04167 0.209953,2.14669 0.22436,3.20626 -0.01564,1.93697 -0.0414,3.87473 0.03888,5.8108 0,0 -4.644134,2.36631 -4.644134,2.36631 z"
       inkscape:connector-curvature="0" />
    <path
       style="fill:#000000"
       id="path3019"
       d="m 48.196414,973.17203 c -0.02106,-0.64189 -0.179473,-1.2357 -0.463588,-1.80626 0,0 4.53206,-2.57566 4.53206,-2.57566 l 0,0 c 0.296963,0.61444 0.503388,1.25068 0.570388,1.93478 0,0 -4.63886,2.44714 -4.63886,2.44714 z"
       inkscape:connector-curvature="0" />
  </g>
</svg>
