<?xml version="1.0" encoding="UTF-8" standalone="no"?>
<!-- Created with Inkscape (http://www.inkscape.org/) -->

<svg
   xmlns:dc="http://purl.org/dc/elements/1.1/"
   xmlns:cc="http://creativecommons.org/ns#"
   xmlns:rdf="http://www.w3.org/1999/02/22-rdf-syntax-ns#"
   xmlns:svg="http://www.w3.org/2000/svg"
   xmlns="http://www.w3.org/2000/svg"
   xmlns:sodipodi="http://sodipodi.sourceforge.net/DTD/sodipodi-0.dtd"
   xmlns:inkscape="http://www.inkscape.org/namespaces/inkscape"
   width="100"
   height="100"
   id="svg2"
   version="1.1"
   inkscape:version="0.48.4 r9939"
   sodipodi:docname="game_asset_friendly.svg">
  <defs
     id="defs4" />
  <sodipodi:namedview
     id="base"
     pagecolor="#ffffff"
     bordercolor="#666666"
     borderopacity="1.0"
     inkscape:pageopacity="0.0"
     inkscape:pageshadow="2"
     inkscape:zoom="2.8284272"
     inkscape:cx="162.58822"
     inkscape:cy="46.219756"
     inkscape:document-units="px"
     inkscape:current-layer="layer1"
     showgrid="false"
     inkscape:window-width="1366"
     inkscape:window-height="716"
     inkscape:window-x="-8"
     inkscape:window-y="-8"
     inkscape:window-maximized="1"
     showguides="true"
     inkscape:guide-bbox="true">
    <sodipodi:guide
       orientation="1,0"
       position="50.011719,90.09375"
       id="guide2986" />
    <sodipodi:guide
       orientation="0,1"
       position="-4.8671875,90"
       id="guide3021" />
  </sodipodi:namedview>
  <metadata
     id="metadata7">
    <rdf:RDF>
      <cc:Work
         rdf:about="">
        <dc:format>image/svg+xml</dc:format>
        <dc:type
           rdf:resource="http://purl.org/dc/dcmitype/StillImage" />
        <dc:title />
      </cc:Work>
    </rdf:RDF>
  </metadata>
  <g
     inkscape:label="Layer 1"
     inkscape:groupmode="layer"
     id="layer1"
     transform="translate(0,-952.36218)">
    <path
       style="fill:#000000"
       d="M 50 10 L 41.84375 31.59375 C 37.350447 43.47482 33.62131 53.3356 33.5625 53.5 C 32.356919 55.967751 31.6875 58.749878 31.6875 61.6875 C 31.6875 71.9267 39.91284 80.21875 50.03125 80.21875 C 60.14966 80.21875 68.34375 71.9267 68.34375 61.6875 C 68.34375 58.755011 67.667001 55.995361 66.46875 53.53125 C 66.464783 53.523091 66.472729 53.508152 66.46875 53.5 C 66.40994 53.3356 62.680804 43.4747 58.1875 31.59375 L 50.03125 10.125 C 50.031173 10.1124 50.030821 10.10635 50.03125 10.09375 L 50 10 z M 49.96875 59.4375 C 53.10987 59.4375 55.65625 61.8719 55.65625 64.875 C 55.65625 67.878 53.10987 70.3125 49.96875 70.3125 C 46.82763 70.3125 44.28125 67.878 44.28125 64.875 C 44.28125 61.8719 46.82763 59.4375 49.96875 59.4375 z "
       transform="translate(0,952.36218)"
       id="path2982" />
  </g>
</svg>
