<?xml version="1.0" encoding="UTF-8" standalone="no"?>
<!-- Created with Inkscape (http://www.inkscape.org/) -->

<svg
   xmlns:dc="http://purl.org/dc/elements/1.1/"
   xmlns:cc="http://creativecommons.org/ns#"
   xmlns:rdf="http://www.w3.org/1999/02/22-rdf-syntax-ns#"
   xmlns:svg="http://www.w3.org/2000/svg"
   xmlns="http://www.w3.org/2000/svg"
   xmlns:sodipodi="http://sodipodi.sourceforge.net/DTD/sodipodi-0.dtd"
   xmlns:inkscape="http://www.inkscape.org/namespaces/inkscape"
   width="100"
   height="100"
   id="svg2"
   version="1.1"
   inkscape:version="0.48.4 r9939"
   sodipodi:docname="game_asset_type_ar.svg">
  <defs
     id="defs4">
    <inkscape:perspective
       sodipodi:type="inkscape:persp3d"
       inkscape:vp_x="0 : 50 : 1"
       inkscape:vp_y="0 : 1000 : 0"
       inkscape:vp_z="100 : 50 : 1"
       inkscape:persp3d-origin="50 : 33.333333 : 1"
       id="perspective3017" />
  </defs>
  <sodipodi:namedview
     id="base"
     pagecolor="#ffffff"
     bordercolor="#666666"
     borderopacity="1.0"
     inkscape:pageopacity="0.0"
     inkscape:pageshadow="2"
     inkscape:zoom="11.313709"
     inkscape:cx="66.776514"
     inkscape:cy="45.44134"
     inkscape:document-units="px"
     inkscape:current-layer="layer1"
     showgrid="false"
     inkscape:window-width="1366"
     inkscape:window-height="716"
     inkscape:window-x="-8"
     inkscape:window-y="-8"
     inkscape:window-maximized="1"
     showguides="true"
     inkscape:guide-bbox="true"
     inkscape:snap-global="false">
    <sodipodi:guide
       orientation="1,0"
       position="10,103.2881"
       id="guide2982" />
    <sodipodi:guide
       orientation="0,1"
       position="7.9910714,90"
       id="guide2986" />
    <sodipodi:guide
       orientation="0,1"
       position="5.6696429,10"
       id="guide2988" />
    <sodipodi:guide
       orientation="1,0"
       position="90,95.3125"
       id="guide2992" />
    <sodipodi:guide
       orientation="0,1"
       position="-12.879445,50"
       id="guide3003" />
    <sodipodi:guide
       orientation="1,0"
       position="50,50"
       id="guide3005" />
    <sodipodi:guide
       orientation="1,0"
       position="20.625,53.546876"
       id="guide3054" />
    <sodipodi:guide
       orientation="1,0"
       position="21.28125,52.796876"
       id="guide3056" />
    <sodipodi:guide
       orientation="1,0"
       position="33.256116,52.856232"
       id="guide3058" />
    <sodipodi:guide
       orientation="0,1"
       position="42.324219,76.105469"
       id="guide3039" />
    <sodipodi:guide
       orientation="0,1"
       position="31.8125,53"
       id="guide3041" />
  </sodipodi:namedview>
  <metadata
     id="metadata7">
    <rdf:RDF>
      <cc:Work
         rdf:about="">
        <dc:format>image/svg+xml</dc:format>
        <dc:type
           rdf:resource="http://purl.org/dc/dcmitype/StillImage" />
        <dc:title />
      </cc:Work>
    </rdf:RDF>
  </metadata>
  <g
     inkscape:label="Layer 1"
     inkscape:groupmode="layer"
     id="layer1"
     transform="translate(0,-952.36218)">
    <path
       style="fill:#000000;stroke:none"
       d="m 50.1875,43.9375 c -0.09348,0 -1.325136,0.58106 -2.8125,0.625 l -1.71875,0.0625 c 0,0 0.08067,-0.314612 -0.21875,-0.15625 -0.062,0.03279 -0.21875,0.15625 -0.21875,0.15625 l -0.46875,0.53125 -5.21875,0 c 0,0 0.0042,0.05178 -5,0.09375 -0.238346,0.002 -0.625,0.375 -0.625,0.375 l -0.375,0.4375 -0.3125,0.5625 -5.96875,-0.03125 -6.40625,0 -0.25,-0.0625 c 0,0 0.03725,-0.21074 0.03125,-1.4375 -0.0014,-0.292374 -0.192007,-0.494768 -0.5,-0.75 -0.324162,-0.268627 -0.26675,-0.19984 -0.3125,-0.21875 -0.109588,-0.04531 -0.340262,-0.03235 -0.65625,-0.03125 l -0.5625,0.03125 0,1 c -8.4e-4,0.559057 0.04561,0.934588 0.0625,2 0.0049,0.309861 -0.3125,0.875 -0.3125,0.875 l -3.46875,0 -3.4375,0 c 0,0 -0.335376,0.364653 -0.40625,0.59375 -0.0057,0.899789 -0.0018,-0.0014 0,0.90625 4.09e-4,0.208332 0.375,0.5 0.375,0.5 l 4.03125,0 4.1875,0 0.59375,0 c 0.314343,0.181454 0.268877,0.334465 0.34375,0.53125 0.0125,0.03284 0.07612,0.291183 0.09375,0.3125 0.01763,0.02132 0.06856,0.125861 0.15625,0.125 0.303662,-0.003 0.05099,-0.01571 0.71875,0 L 22.0625,50.25 l 5.59375,0 c 4.711925,0 5.637076,-0.04344 5.59375,0.21875 -0.04035,0.244165 0.0625,0.6875 0.0625,0.6875 0.456565,0.02393 2.050919,-0.147674 5,-0.0625 8.515502,0.245916 9.797897,0.321881 11.03125,0.84375 1.367579,0.578662 1.864131,0.590744 2.6875,0.03125 0.357706,-0.243068 0.69183,-0.4375 0.75,-0.4375 0.0132,0 0.02506,0.04791 0.03125,0.09375 0.16426,0.02249 0.801516,0.0024 1.53125,-0.03125 0.06014,-0.012 0.267013,-0.0056 0.5625,-0.03125 0.02986,-0.011 0.181118,0.0054 0.46875,0 0.680084,-0.02281 0.556442,0.0106 0.6875,0 0.531193,-5.62e-4 0.986618,0.01425 1.4375,0.03125 0.384125,0.0138 0.885231,0.83512 1.28125,1.46875 0.0433,-0.07318 0.09598,-0.04155 0.15625,0.1875 0.0543,0.01724 0.5,0.0625 0.5,0.0625 0,0 0.408182,0.33269 0.59375,0.53125 0.326456,0.349313 0.329984,1.770395 0.53125,1.84375 0,0 0.03272,0.02376 0.0625,0 0.02188,-0.01746 0.447079,-0.806054 0.78125,-0.59375 0.940376,0.597435 0.977755,0.618167 3,0.8125 l 1.5,0.125 0.65625,2.625 c 0.139918,0.559574 -0.273664,1.523682 -0.25,1.8125 0.0087,0.106146 0.116235,0.398382 0.75,0.21875 0.137484,-0.03897 4.416463,-0.813176 4.71875,-1 0.103428,-0.06392 -0.222422,-0.957052 -1.15625,-3.125 -0.874844,-2.031011 -0.1875,-3.54693 -0.1875,-3.625 0,-0.07807 0.09965,-0.0669 0.5625,-0.0625 0.700302,-0.0053 1.808831,0.134566 2.40625,0.5 2.08635,1.276194 1.442726,0.878228 2.96875,1.78125 0.69452,0.410981 1.444773,0.790149 2.25,0.84375 1.162747,0.0774 2.749813,0.109369 4.125,0.15625 1.718541,0.05859 4.597194,0.15345 5.15625,0.15625 l 1,0 c 0,0 -0.203346,-2.172632 -0.1875,-3.25 0.01698,-1.154582 0.3125,-3.4375 0.3125,-3.4375 0,0 -0.207965,-0.21581 -0.34375,-0.21875 -3.113872,-0.06741 -9,-0.21875 -9,-0.21875 l -8.866226,-0.211536 -0.06692,1.107619 c 0,0 -0.02678,0.06632 -0.05529,0.06535 -0.02786,-9.44e-4 -0.04957,-0.06735 -0.04957,-0.06735 l 0.0068,-1.112775 c 0,0 -0.699402,-0.93749 -1.091588,-1.411826 -0.01515,-0.01832 -1.531559,0.02413 -3.096715,0.02365 -1.669279,-5.13e-4 -3.385174,-0.01293 -3.385174,-0.01293 l 0.0041,0.545524 -0.0016,0.195364 -0.0028,0.335979 -0.0014,0.171927 -0.0045,0.617933 7.408996,0.06637 9.4e-4,0.01858 -7.337452,-0.06 c -0.01097,-9e-5 -0.03711,0.01022 -0.101582,0.0092 0,0 0.0214,-1.914388 0.01036,-1.919958 -0.04733,-0.02388 6.487435,0.03131 6.410869,-0.04857 -0.403474,-0.420905 -1.3125,-1.15625 -1.3125,-1.15625 l -0.5,-0.15625 -6.75,0.09375 -6.967522,0.09128 -0.04198,1.054212 c 0,0 0.0076,0.15356 -0.04885,0.177797 -0.03787,0.01625 -0.10895,-0.05839 -0.10895,-0.05839 L 53.75,45.84375 c 0,0 -4.63124,-0.21295 -4.6875,-0.21875 0,0 -0.37651,-0.35893 -0.4375,-0.5625 -0.03905,-0.130322 0.426718,-0.233664 0.84375,-0.34375 0.443485,-0.11707 0.399991,-0.104831 0.53125,-0.25 0.125946,-0.139292 0.230973,-0.531263 0.1875,-0.53125 z m -14.5625,3.09375 2.875,0 c 0.136078,5.54e-4 0.274065,0.114111 0.28125,0.25 0.0072,0.135889 -0.113922,0.250554 -0.25,0.25 l -2.875,0 c -0.136078,-5.54e-4 -0.274065,-0.114111 -0.28125,-0.25 -0.0072,-0.135889 0.113922,-0.250554 0.25,-0.25 z m 4.21875,0 2.90625,0.03125 c 0.136078,5.54e-4 0.242815,0.08286 0.25,0.21875 0.0072,0.135889 -0.08267,0.250554 -0.21875,0.25 l -2.90625,0 c -0.136078,-5.54e-4 -0.242815,-0.114111 -0.25,-0.25 -0.0072,-0.135889 0.08267,-0.250554 0.21875,-0.25 z m 4.28125,0 2.90625,0 c 0.136078,5.54e-4 0.242815,0.114111 0.25,0.25 0.0072,0.135889 -0.113922,0.250554 -0.25,0.25 l -2.875,0 c -0.136078,-5.54e-4 -0.242815,-0.114111 -0.25,-0.25 -0.0072,-0.135889 0.08267,-0.250554 0.21875,-0.25 z m -22.03125,0.0625 8.53125,0.0625 c 0.136673,9.76e-4 0.26749,0.114018 0.28125,0.25 0.01376,0.135982 -0.08208,0.250976 -0.21875,0.25 l -8.5625,-0.0625 c -0.136673,-9.76e-4 -0.26749,-0.114018 -0.28125,-0.25 -0.01376,-0.135982 0.113327,-0.250976 0.25,-0.25 z m -10.1875,1.1875 c 0.172251,-0.0023 0.313806,0.108988 0.3125,0.28125 l 0,0.84375 c -0.0013,0.172262 -0.140249,0.310163 -0.3125,0.3125 -0.172251,0.0023 -0.313806,-0.140238 -0.3125,-0.3125 l 0,-0.8125 c 0.0013,-0.172262 0.140249,-0.310163 0.3125,-0.3125 z m 8.8125,0.0625 C 24.564369,48.305417 33.25,48.375 33.25,48.375 l 0,0.65625 -12.34375,-0.0625 c 0,0 -0.261845,-0.153697 -0.296875,-0.273438 -0.04838,-0.165374 -0.07181,-0.349756 0.109375,-0.351562 z M 34.8125,49.125 c 0.12297,0 0.21875,0.09794 0.21875,0.21875 0,0.120812 -0.09578,0.21875 -0.21875,0.21875 -0.12297,0 -0.21875,-0.09794 -0.21875,-0.21875 0,-0.120812 0.09578,-0.21875 0.21875,-0.21875 z m 16.0625,1.8125 c 0.166117,0 0.3125,0.11729 0.3125,0.28125 0,0.16396 -0.146383,0.3125 -0.3125,0.3125 -0.166117,0 -0.3125,-0.14854 -0.3125,-0.3125 0,-0.16396 0.146383,-0.28125 0.3125,-0.28125 z m 24.46875,0.125 c 0.100243,-0.01105 0.221848,0.002 0.3125,0 0.187924,0 0.379688,0.04717 0.5625,0.09375 0.239936,0.06113 0.6875,0.25 0.6875,0.25 0.451,0.1734 1.23721,0.279 1.9375,0.5 0.775082,0.244543 0.699294,0.155384 1.4375,0.28125 0.680683,-0.01975 0.75121,0.01234 0.78125,0 0.111301,0.02851 0.14307,0.04731 0.21875,0.0625 0.01009,0.002 0.02172,-0.0018 0.03125,0 0.07362,0.016 0.171144,0.04605 0.25,0.09375 0.117189,0.04469 0.320483,0.18245 0.53125,0.28125 0.08657,0.076 0.131036,0.1494 0.21875,0.25 l 0.125,0.1875 0,0.28125 c 0.02572,0.2264 -0.04956,0.506 -0.125,0.625 -0.166644,0.2629 -0.21875,0.3125 -0.21875,0.3125 l -0.1875,0.15625 c -0.0199,0.01157 -0.04748,0.01893 -0.0625,0.03125 -0.08408,0.06898 -0.03351,0.03971 -0.3125,0.09375 -0.03598,-2.69e-4 -0.243485,3.6e-4 -0.25,0 l -0.375,0 C 80.655945,54.54857 80.096334,54.50141 79.59375,54.4375 79.220162,54.39 78.5,54.15625 78.5,54.15625 L 76.4375,53.1875 c -1.172099,-0.797289 -1.321213,-0.938196 -1.34375,-0.96875 0,0 -0.09865,-0.07229 -0.125,-0.125 -0.03294,-0.06588 -0.0625,-0.21875 -0.0625,-0.21875 0,0 -0.0099,-0.166594 0,-0.25 0.01041,-0.08839 0.05593,-0.169438 0.09375,-0.25 0.03569,-0.07602 0.07127,-0.154263 0.125,-0.21875 0.03963,-0.04755 0.118507,-0.0827 0.21875,-0.09375 z m -20.625,0.65625 c -0.330096,-0.01866 -1.484121,0.04796 -1.90625,0.03125 0.01409,0.644969 -0.209855,2.693224 -0.5,3.75 -0.393454,1.433051 -0.953111,2.69826 -1.6875,4.0625 -0.851358,1.581526 -1.422334,2.404336 -1.830155,2.894226 -0.320271,0.392889 -0.377229,0.36011 -0.125,0.5625 0.08426,0.07739 0.671065,0.659898 2.201689,2.026213 0,0 0.07196,0.08452 0.508759,0.405333 0.5636,0.41394 1.483262,1.222348 1.525957,1.174228 0.49842,-0.561784 3.190858,-5.297351 3.65625,-6.25 0.851607,-1.743224 1.079283,-2.778288 1.3125,-3.5625 0.239182,-0.804265 0.390539,-1.502816 0.65625,-2.75 0.05153,-0.241872 0.06603,-0.412747 0.09375,-0.5 0.02532,-0.07969 0.04269,-0.30891 0.0625,-0.375 C 58.597445,53.036354 58.59187,53.00505 58.5,52.875 58.209234,52.443562 57.824893,51.766469 57.46875,51.75 l -0.6875,-0.03125 c -0.04042,-0.0019 -0.198116,0.01 -0.34375,0 -0.793099,-0.016 -0.606097,0.02 -1.71875,0 z m 9.0625,1.34375 c 0.376021,0.01643 0.717374,0.04455 0.96875,0.25 0.298927,0.244314 0.5,0.399812 0.5,0.75 0,0.752243 -0.839466,1.375 -1.875,1.375 -0.794419,0 -1.539358,-0.489686 -1.8125,-1 C 61.4796,54.282613 61.5,54.237653 61.5,54.0625 c 0,-0.412996 0.225407,-0.590443 0.625,-0.84375 0.158723,-0.100616 0.763731,-0.198021 0.9375,0.3125 C 63.248083,54.076483 62.383819,55 62.625,55 c 0.06411,0 0.572536,-0.401234 0.8125,-0.8125 0.314327,-0.538712 0.265847,-1.128404 0.34375,-1.125 z"
       transform="translate(0,952.36218)"
       id="path3041"
       inkscape:connector-curvature="0"
       sodipodi:nodetypes="cccccccscccccccscccccccccccccccccccsccsssscccccccccsccsccccccsscssssccscscccsccssccccccccsssscccccsccccsaccccccccccccccccccccccccsccsccccccccscccsssssssssssssccccccsccccccccccccccccccccccsccssccsscssscccccccsssssssssss" />
  </g>
</svg>
