<?xml version="1.0" encoding="UTF-8" standalone="no"?>
<!-- Created with Inkscape (http://www.inkscape.org/) -->

<svg
   xmlns:dc="http://purl.org/dc/elements/1.1/"
   xmlns:cc="http://creativecommons.org/ns#"
   xmlns:rdf="http://www.w3.org/1999/02/22-rdf-syntax-ns#"
   xmlns:svg="http://www.w3.org/2000/svg"
   xmlns="http://www.w3.org/2000/svg"
   xmlns:sodipodi="http://sodipodi.sourceforge.net/DTD/sodipodi-0.dtd"
   xmlns:inkscape="http://www.inkscape.org/namespaces/inkscape"
   width="100"
   height="100"
   id="svg2"
   version="1.1"
   inkscape:version="0.48.4 r9939"
   sodipodi:docname="game_asset_squads_defend.svg">
  <defs
     id="defs4" />
  <sodipodi:namedview
     id="base"
     pagecolor="#ffffff"
     bordercolor="#666666"
     borderopacity="1.0"
     inkscape:pageopacity="0.0"
     inkscape:pageshadow="2"
     inkscape:zoom="11.313709"
     inkscape:cx="68.210238"
     inkscape:cy="79.269332"
     inkscape:document-units="px"
     inkscape:current-layer="layer1"
     showgrid="false"
     inkscape:window-width="1366"
     inkscape:window-height="716"
     inkscape:window-x="-8"
     inkscape:window-y="-8"
     inkscape:window-maximized="1"
     showguides="true"
     inkscape:guide-bbox="true">
    <sodipodi:guide
       orientation="1,0"
       position="10,94.21875"
       id="guide3017" />
    <sodipodi:guide
       orientation="1,0"
       position="90,91.6875"
       id="guide3019" />
    <sodipodi:guide
       orientation="0,1"
       position="-5.6875,90"
       id="guide3021" />
    <sodipodi:guide
       orientation="0,1"
       position="-5.25,10"
       id="guide3023" />
    <sodipodi:guide
       orientation="1,0"
       position="50,64.5625"
       id="guide3025" />
    <sodipodi:guide
       orientation="0,1"
       position="35.125,50"
       id="guide3027" />
    <sodipodi:guide
       orientation="1,0"
       position="22,87.8125"
       id="guide3808" />
    <sodipodi:guide
       orientation="1,0"
       position="78,86.59375"
       id="guide3810" />
    <sodipodi:guide
       orientation="0,1"
       position="15.65625,22"
       id="guide3814" />
    <sodipodi:guide
       orientation="0,1"
       position="16.78125,78"
       id="guide3816" />
    <sodipodi:guide
       orientation="-0.70710638,0.70710718"
       position="27.5625,75.1875"
       id="guide3141" />
  </sodipodi:namedview>
  <metadata
     id="metadata7">
    <rdf:RDF>
      <cc:Work
         rdf:about="">
        <dc:format>image/svg+xml</dc:format>
        <dc:type
           rdf:resource="http://purl.org/dc/dcmitype/StillImage" />
        <dc:title></dc:title>
      </cc:Work>
    </rdf:RDF>
  </metadata>
  <g
     inkscape:label="Layer 1"
     inkscape:groupmode="layer"
     id="layer1"
     transform="translate(0,-952.36218)">
    <path
       inkscape:connector-curvature="0"
       style="fill:#000000"
       d="m 50.005453,962.35251 -8.71875,22.90625 c -4.799751,12.60008 -8.78093,23.07574 -8.84375,23.25004 -0.02814,0.078 -0.02084,0.1105 -0.03125,0.1563 -0.0064,0.028 -0.03165,0.075 -0.03125,0.094 -1.2188,2.5639 -1.9375,5.4108 -1.9375,8.4375 0,10.8588 8.785252,19.6563 19.59375,19.6563 10.808493,0 19.5625,-8.7975 19.5625,-19.6563 0,-3.0267 -0.722442,-5.8736 -1.9375,-8.4375 4.3e-4,-0.018 -0.02486,-0.065 -0.03125,-0.094 -0.01032,-0.046 -0.0033,-0.078 -0.03125,-0.1562 -0.06281,-0.1744 -4.044002,-10.65016 -8.84375,-23.25009 l -8.75,-22.90625 z m 0.0625,3.25 8.1875,21.59375 c 4.4933,11.88098 8.1912,21.74194 8.25,21.90634 0.03118,0.087 0.0548,0.1425 0.0625,0.1875 0.0028,0.016 2.78e-4,0.05 0,0.062 1.13999,2.4197 1.8125,5.1113 1.8125,7.9687 0,10.2392 -8.194094,18.5313 -18.3125,18.5313 -10.11841,0 -18.3125,-8.2921 -18.3125,-18.5313 0,-2.8574 0.669001,-5.549 1.8125,-7.9687 -2.3e-4,-0.01 -0.0022,-0.048 0,-0.062 0.0071,-0.046 0.0299,-0.096 0.0625,-0.1875 0.05881,-0.1644 3.756697,-10.02526 8.25,-21.90634 z"
       id="path3975-1"
       sodipodi:nodetypes="cccccssscccccccccccsssccccc" />
    <path
       style="fill:#000000"
       d="m 50.066861,972.03325 -6.972617,18.69201 c -3.841236,10.28464 -7.029202,18.82034 -7.079478,18.96274 -0.02787,0.078 -0.04732,0.1226 -0.05343,0.1622 -0.0019,0.013 -1.97e-4,0.045 0,0.054 -0.977555,2.0945 -1.549471,4.4245 -1.549471,6.8979 0,8.8633 7.031682,16.0411 15.681711,16.0411 8.650025,0 15.654995,-7.1778 15.654995,-16.0411 0,-2.4734 -0.574916,-4.8034 -1.54947,-6.8979 2.37e-4,-0.01 -0.02433,-0.039 -0.02671,-0.054 -0.0066,-0.038 -6.3e-5,-0.087 -0.02671,-0.1622 -0.05027,-0.1424 -3.238244,-8.6782 -7.079477,-18.96274 l -6.999338,-18.69201 z m -0.02671,42.82125 c 2.685281,0 4.862132,2.1073 4.862132,4.7068 0,2.5996 -2.176851,4.7069 -4.862132,4.7069 -2.685281,0 -4.862132,-2.1073 -4.862132,-4.7069 0,-2.5995 2.176851,-4.7068 4.862132,-4.7068 z"
       id="path2982"
       inkscape:connector-curvature="0" />
    <path
       style="fill:#000000;stroke:none"
       d="m 21.994362,978.54811 0,-4.19086 4.234524,0 c 2.328984,0 4.234519,0.007 4.234519,0.0155 0,0.009 -1.905535,1.89419 -4.234519,4.19087 l -4.234522,4.17579 0,-4.19087 z"
       id="path3148"
       inkscape:connector-curvature="0" />
    <path
       inkscape:connector-curvature="0"
       id="path3186"
       d="m 73.80866,974.358 4.190855,-0.006 0.0065,4.23452 c 0.0036,2.32898 -4.8e-4,4.23452 -0.009,4.23454 -0.009,10e-6 -1.897122,-1.90262 -4.197385,-4.22806 l -4.182306,-4.22809 4.190865,-0.006 z"
       style="fill:#000000;stroke:none" />
  </g>
</svg>
