<?xml version="1.0" encoding="UTF-8" standalone="no"?>
<!-- Created with Inkscape (http://www.inkscape.org/) -->

<svg
   xmlns:dc="http://purl.org/dc/elements/1.1/"
   xmlns:cc="http://creativecommons.org/ns#"
   xmlns:rdf="http://www.w3.org/1999/02/22-rdf-syntax-ns#"
   xmlns:svg="http://www.w3.org/2000/svg"
   xmlns="http://www.w3.org/2000/svg"
   xmlns:sodipodi="http://sodipodi.sourceforge.net/DTD/sodipodi-0.dtd"
   xmlns:inkscape="http://www.inkscape.org/namespaces/inkscape"
   width="100"
   height="100"
   id="svg2"
   version="1.1"
   inkscape:version="0.48.4 r9939"
   sodipodi:docname="game_asset_type_rr.svg">
  <defs
     id="defs4" />
  <sodipodi:namedview
     id="base"
     pagecolor="#ffffff"
     bordercolor="#666666"
     borderopacity="1.0"
     inkscape:pageopacity="0.0"
     inkscape:pageshadow="2"
     inkscape:zoom="2.8284271"
     inkscape:cx="114.51094"
     inkscape:cy="37.965203"
     inkscape:document-units="px"
     inkscape:current-layer="layer1"
     showgrid="false"
     inkscape:window-width="1366"
     inkscape:window-height="716"
     inkscape:window-x="-8"
     inkscape:window-y="-8"
     inkscape:window-maximized="1"
     showguides="true"
     inkscape:guide-bbox="true">
    <sodipodi:guide
       orientation="1,0"
       position="10,99.247488"
       id="guide2993" />
    <sodipodi:guide
       orientation="0,1"
       position="15.847,10"
       id="guide2995" />
    <sodipodi:guide
       orientation="0,1"
       position="16.730652,90"
       id="guide2997" />
    <sodipodi:guide
       orientation="1,0"
       position="90,93.944187"
       id="guide2999" />
  </sodipodi:namedview>
  <metadata
     id="metadata7">
    <rdf:RDF>
      <cc:Work
         rdf:about="">
        <dc:format>image/svg+xml</dc:format>
        <dc:type
           rdf:resource="http://purl.org/dc/dcmitype/StillImage" />
        <dc:title />
      </cc:Work>
    </rdf:RDF>
  </metadata>
  <g
     inkscape:label="Layer 1"
     inkscape:groupmode="layer"
     id="layer1"
     transform="translate(0,-952.36218)">
    <path
       style="fill:#000000"
       d="m 22.734677,965.21205 -0.75,2.34375 -1.1875,2.5625 c -0.530044,0.76515 -0.972769,1.46719 -1.5625,2.03125 -1.270804,1.2155 -2.59375,1.89591 -2.59375,1.9375 0,0.0609 3.492707,2.22556 6.40625,4.15625 2.689423,1.78218 4.854949,3.32144 5.1875,3.6875 0.306169,0.11748 23.313419,14.4043 23.375,14.5 -0.212664,0.26199 -0.02463,0.0265 -0.3125,0.40625 -8.135008,-4.63725 -15.227913,-9.1615 -23.03125,-14.09375 -0.336737,0.74 -1.197485,2.05102 -2.03125,3.625 l -2.09375,3.96875 0.5625,1.03125 c 0.501765,0.87148 1.248817,1.40023 5.46875,3.78125 l 4.34375,2.4375 c 0,0 0.330398,0.19309 0.4375,0.34375 0.223152,0.31393 0.15625,1.28125 0.15625,1.28125 0.05889,1.01135 -0.126075,1.81965 -0.84375,3.65625 -0.401086,1.0264 -0.569434,1.672 -0.6875,2.25 -0.131532,0.644 -0.167566,1.2019 -0.125,2.25 0.04815,1.1855 0.941524,1.9978 1.6875,2.7813 1.034337,1.0863 2.349048,1.6959 3.71875,2.5 3.062964,1.798 5.813668,3.4705 9.40625,1.9062 2.362103,-1.0285 2.812165,-1.1323 4.03125,-1.0312 1.264724,0.1048 1.493454,0.2215 2.59375,1.375 0.707516,0.7416 1.212777,1.6969 1.375,2.2812 0.151323,0.545 0.374243,2.731 0.375,4.9063 0.0011,3.1838 -0.08116,4.2546 -0.46875,5.5 -0.483658,1.554 -2.238126,4.0878 -3.125,4.5625 -0.402157,0.2152 -1.51023,2.2819 -1.53125,2.6875 -0.110038,1.1354 1.101243,2.4784 1.78125,2.875 0.381088,0.2222 2.738339,1.7324 5.25,3.3437 4.565367,2.9288 4.566199,2.942 6.3125,3.0313 0.960738,0.049 3.70931,0.098 6.09375,0.125 3.82864,0.044 4.471168,-10e-4 5.4375,-0.4375 1.407102,-0.6356 2.061834,-1.297 2.90625,-2.6563 l 1.09375,0.5313 0.96875,0 -4.15625,-10.5313 c -1.51735,-3.8487 -2.417986,-7.1985 -2.6875,-8.4375 -0.09985,-0.039 -0.170935,-0.06 -0.28125,-0.125 l -0.46875,-0.4062 c 0,0 -0.23055,-0.4667 -0.375,-0.75 -0.166045,-0.3257 -0.223421,-0.6991 -0.34375,-1.0625 -0.131343,-0.3966 -0.291947,-0.8169 -0.40625,-1.2188 -0.09718,-0.3416 -0.25,-1.0312 -0.25,-1.0312 l -0.4375,-1.4375 c -0.424905,-1.5085 -0.0508,-0.046 -0.40625,-1.5 l -0.28125,-0.875 c -0.0096,-0 -0.0054,0 -0.0625,-0.031 l -0.25,-0.6875 c 0,0 -0.337709,-0.3565 -0.375,-0.5312 -0.0763,-0.3575 -0.250605,-0.6995 -0.34375,-1.0625 -0.06299,-0.2456 -0.110091,-0.5007 -0.15625,-0.75 -0.101574,-0.5485 -0.25,-1.6563 -0.25,-1.6563 l -0.34375,-0.9687 c -0.0069,-0.01 -0.02402,-0.022 -0.03125,-0.031 -0.304737,-0.3829 -0.928452,-1.7479 -1.15625,-2.2812 -0.231918,-0.5084 -0.516832,-1.1385 -0.5,-1.1563 l -0.15625,-0.4062 c 0,0 -0.223293,-0.5622 -0.3125,-0.9063 -0.105278,-0.5135 -0.03192,-0.2022 -0.09375,-0.5625 -0.02583,-0.1505 -0.05171,-0.1992 -0.09375,-0.7812 -0.0027,-0.2516 -0.06058,-0.4996 -0.09375,-0.75 -0.0207,-0.1563 -0.0625,-0.4688 -0.0625,-0.4688 l -0.1875,-0.75 c -0.419845,-0.2787 -3.634673,-2.4306 -3.78125,-3.5 0,0 -1.759831,-0.85343 -2.28125,-1.34375 -0.14755,-0.13875 -0.205369,-0.26194 -0.1875,-0.375 0.04476,-0.28316 2.451505,1.07884 2.65625,1.15625 0.333558,0.12612 0.399281,-0.82624 0.75,-0.75 1.373777,0.29864 3,1.34375 3,1.34375 1.155806,0.47089 1.3125,-0.0161 1.3125,-0.6875 0,-0.30427 -0.91911,-0.0304 -1.34375,-0.34375 -0.471222,-0.34768 -0.530798,-1.30813 -2.28125,-2.21875 l -3.625,-1.90625 -1.125,0.25 -0.59375,-0.96875 -0.21875,-0.3125 -0.4375,-0.15625 1.0625,2.15625 c -0.716264,0.52579 -1.389725,0.9119 -1.5,0.84375 -0.110276,-0.0681 -0.718664,-0.99515 -1.375,-2.03125 0,0 -0.801162,-1.17293 -1,-1.84375 -0.219045,-0.73899 -0.1875,-2.3125 -0.1875,-2.3125 0,0 -0.02994,-1.58158 -0.09375,-2.09375 -0.02473,-0.19849 -0.46875,-0.35156 -0.46875,-0.35156 l -2.91834,5.03043 -0.449215,-0.26777 2.961305,-5.00485 c -2.476066,-1.11918 -7.581257,-3.86669 -15.28125,-8.90625 -5.438896,-3.55969 -12.255399,-7.83094 -13.8125,-8.84375 z m 6.5,21.46875 c 0.400778,0 0.718364,0.32721 0.71875,0.71875 0,0.39181 -0.317699,0.71875 -0.71875,0.71875 -0.401051,0 -0.71875,-0.32694 -0.71875,-0.71875 0,-0.3918 0.317699,-0.71875 0.71875,-0.71875 z m 8.5625,8.0625 c 0.400778,0 0.718364,0.32721 0.71875,0.71875 0,0.39181 -0.317699,0.71875 -0.71875,0.71875 -0.401051,0 -0.71875,-0.32694 -0.71875,-0.71875 0,-0.3918 0.317699,-0.71875 0.71875,-0.71875 z m 2.78125,1.71875 c 0.400778,0 0.718364,0.32721 0.71875,0.71875 0,0.39181 -0.317699,0.71875 -0.71875,0.71875 -0.401051,0 -0.71875,-0.32694 -0.71875,-0.71875 0,-0.3918 0.317699,-0.71875 0.71875,-0.71875 z m 30.59375,2.03125 c -0.483243,-2.3e-4 -0.991591,0.44777 -2.15625,1.0625 -0.04984,0.0327 -0.04224,0.0166 -0.28125,0.15625 0.02326,-0.0118 0.03107,-0.0463 0.0625,-0.0625 -0.122966,0.0679 -0.2014,0.10991 -0.21875,0.125 -0.921381,0.53535 -1.256055,0.73565 -1.40625,0.78125 0.131148,0.3949 0.296476,1.9686 0.53125,2.875 0.06519,0.2517 0.126129,0.5415 0.21875,0.8125 0.110474,0.3232 0.178729,0.6247 0.25,0.8125 l 0.25,0.625 0.1875,0.375 c 0.355561,-0.1926 1.121696,-0.5661 2.9375,-1.4375 l 1.84375,-0.875 c 0,0 1.19934,-0.4693 0.9375,-1.4062 -0.26184,-0.937 -1.685278,-3.07655 -2.65625,-3.68755 -0.178006,-0.11201 -0.338919,-0.15617 -0.5,-0.15625 z m -32.90625,4 c 0.198034,-0.01 0.34375,0 0.34375,0 0.97188,0.061 1.05678,0.068 1.375,0.25 0.36163,0.2069 1.27325,0.8765 1.5,1.25 0.190002,0.313 0.237203,0.3691 0.625,0.875 0.237375,0.3097 -0.06073,-0.1164 0.65625,0.9063 l 0.09375,0.8437 -0.6875,1.625 c -0.32914,0.4609 -0.008,0.2026 -1.21875,1.8438 -1.741178,1.1328 -1.84844,1.2682 -3,1.2812 l -2.71875,-2.1562 c 0,0 -0.214303,-0.3039 -0.28125,-0.4688 -0.06842,-0.1686 -0.125,-0.5312 -0.125,-0.5312 0,0 -0.06764,-0.7656 -0.03125,-1.1563 0.03639,-0.3907 0.25,-1.1875 0.25,-1.1875 l 0.625,-1.125 c 0.61527,-1.0969 0.65606,-1.1386 1.28125,-1.7187 0,0 0.417526,-0.3391 0.6875,-0.4375 0.161773,-0.059 0.426966,-0.088 0.625,-0.094 z m 38.03125,2.5 c -0.322166,0 -0.352315,0.1262 -1.1875,0.625 -2.351614,1.4044 -4.44903,2.4711 -5.21875,2.8438 0.128228,0.5083 0.280234,1.964 0.5,2.8125 0.142945,0.5518 0.389463,1.2727 0.5,1.625 l 0.1875,0.625 0.1875,0.375 5.96875,-3.6563 c 0,0 1.314435,-0.7927 1.9375,-1.5625 0.256617,-0.317 -0.156502,-1.0115 -0.375,-1.2187 -0.07966,-0.076 -0.58433,-0.8714 -1.34375,-1.8438 -0.406992,-0.5211 -0.834085,-0.625 -1.15625,-0.625 z m -31.4375,0.7188 c 0.0113,-0.012 0.43372,0.2225 0.9375,0.5312 0.88597,0.5429 0.95024,0.5911 1.34375,1.125 0.366496,0.4973 0.523123,0.704 0.625,1 0.09537,0.2771 0.302971,0.5937 0.25,1.3438 l 0,1.1875 c 0,0 -0.216146,0.8229 -0.3125,1.0625 -0.134248,0.3338 -0.266516,0.6637 -0.5,0.9375 -0.300263,0.352 -1.1875,0.7187 -1.1875,0.7187 -0.84255,0.516 -1.2184,0.6956 -1.34375,0.6875 -0.0962,-0.01 -0.6209,-0.011 -1.15625,-0.031 0,0 -0.634392,-0.1382 -0.9375,-0.25 -0.312864,-0.1155 -0.8125,-0.4063 -0.8125,-0.4063 -0.62119,-0.4999 -0.95201,-0.7031 -1.625,-1.0312 l -1.75,-0.9375 1.90625,0.094 c 0.5642,-0.2382 1.08146,-0.4941 1.1875,-0.5937 0.10313,-0.097 0.60938,-0.5159 1.125,-0.9375 0.51563,-0.4215 0.89118,-0.9144 0.9375,-1 0.03102,-0.058 0.314562,-0.4689 0.5,-1 0.09138,-0.2618 0.147913,-0.4735 0.25,-0.7813 0.30927,-0.9325 0.55117,-1.707 0.5625,-1.7187 z m 35.067861,7.0347 c -0.156374,4e-4 -0.412535,0.071 -0.562663,0.1654 -0.230356,0.1 -0.565241,0.2847 -0.848948,0.4249 -2.109253,1.0421 -5.622297,2.9124 -6.34375,3.0937 0.13402,0.1918 0.640774,2.1095 0.96875,3.1563 0.170438,0.544 0.420713,1.2727 0.53125,1.625 l 0.1875,0.625 0.34375,0.1562 c 0.285477,-0.2191 3.087637,-1.6685 6.03125,-3.625 1.994011,-1.3253 0.785766,-0.4896 2.044194,-1.4337 0.533686,-0.4004 0.15625,-0.875 0.15625,-0.875 -0.665337,-1.127 -1.187068,-1.8307 -1.90625,-2.8125 -0.161873,-0.221 -0.444959,-0.5008 -0.601333,-0.5003 z m -5.724111,9.2465 c -0.01005,0.01 -0.121528,0.089 -0.125,0.094 l 0.3125,0 z m -1.65625,5.4688 0.40625,1.0937 c 0.2343,0.5925 1.03978,2.75 1.78125,4.8125 0.74146,2.0625 1.62621,4.5282 1.96875,5.4688 l 0.625,1.6875 c 0,0 0.10066,0.5075 0.0625,0.75 -0.03759,0.2388 -0.05644,0.5672 -0.28125,0.6562 -0.346117,0.1371 -1.03125,0.3438 -1.03125,0.3438 -0.830659,0.2132 -1.652711,0.5024 -2.46875,0.6875 -1.089688,0.2471 -2.102103,-0.01 -2.46875,0.031 -0.12032,0.014 -0.66563,0.01 -1.25,-0.031 -0.58438,-0.041 -2.8294,-0.076 -3.8125,-0.094 -0.9831,-0.018 -1.838195,-0.2915 -2.59375,-0.5625 -0.923649,-0.3313 -1.84375,-1.0937 -1.84375,-1.0937 -1.28932,-0.9778 -2.38917,-1.7987 -2.4375,-1.8438 -0.1537,-0.1437 0.13737,-0.2335 1.375,-0.4062 0.93619,-0.1306 4.16532,-0.4936 6.09375,-1.25 0.387597,-0.1521 0.737026,-0.3654 1.0625,-0.625 0.348559,-0.2781 0.914259,-0.6882 1.625,-1.5625 1.02115,-1.2562 0.808576,-1.0525 0.8125,-1.0625 0.856646,-2.1892 0.875,-2.1875 0.875,-2.1875 0.76705,-2.209 0.790975,-2.2211 1.1875,-3.5 z m -10.4375,0.7812 c 0.170854,0 0.3125,0.1416 0.3125,0.3125 0,0.1709 -0.141646,0.3125 -0.3125,0.3125 -0.170854,0 -0.3125,-0.1416 -0.3125,-0.3125 0,-0.1709 0.141646,-0.3125 0.3125,-0.3125 z"
       id="path3019"
       inkscape:connector-curvature="0"
       sodipodi:nodetypes="cccssscccccccccscscsssssssssscsssscccccccccccccccccccccccccccccccccscsscsscccccccscscsccccsccscsssscsssscssssccccccscccccsssccccsccccccscscccscssccccccsssscscsccssccccccccccccccscacscccsscssccccccsccsscsccsscccsssccccsssss" />
  </g>
</svg>
