<?xml version="1.0" encoding="UTF-8" standalone="no"?>
<!-- Created with Inkscape (http://www.inkscape.org/) -->

<svg
   xmlns:dc="http://purl.org/dc/elements/1.1/"
   xmlns:cc="http://creativecommons.org/ns#"
   xmlns:rdf="http://www.w3.org/1999/02/22-rdf-syntax-ns#"
   xmlns:svg="http://www.w3.org/2000/svg"
   xmlns="http://www.w3.org/2000/svg"
   xmlns:sodipodi="http://sodipodi.sourceforge.net/DTD/sodipodi-0.dtd"
   xmlns:inkscape="http://www.inkscape.org/namespaces/inkscape"
   width="100"
   height="100"
   id="svg2"
   version="1.1"
   inkscape:version="0.48.4 r9939"
   sodipodi:docname="info_sv_t4g.svg">
  <defs
     id="defs4">
    <inkscape:perspective
       sodipodi:type="inkscape:persp3d"
       inkscape:vp_x="0 : 50 : 1"
       inkscape:vp_y="0 : 1000 : 0"
       inkscape:vp_z="100 : 50 : 1"
       inkscape:persp3d-origin="50 : 33.333333 : 1"
       id="perspective3017" />
  </defs>
  <sodipodi:namedview
     id="base"
     pagecolor="#ffffff"
     bordercolor="#666666"
     borderopacity="1.0"
     inkscape:pageopacity="0.0"
     inkscape:pageshadow="2"
     inkscape:zoom="5.6568542"
     inkscape:cx="65.415071"
     inkscape:cy="45.674376"
     inkscape:document-units="px"
     inkscape:current-layer="layer1"
     showgrid="false"
     inkscape:window-width="1366"
     inkscape:window-height="716"
     inkscape:window-x="-8"
     inkscape:window-y="-8"
     inkscape:window-maximized="1"
     showguides="true"
     inkscape:guide-bbox="true">
    <sodipodi:guide
       orientation="1,0"
       position="10,103.2881"
       id="guide2982" />
    <sodipodi:guide
       orientation="0,1"
       position="7.9910714,90"
       id="guide2986" />
    <sodipodi:guide
       orientation="0,1"
       position="5.6696429,10"
       id="guide2988" />
    <sodipodi:guide
       orientation="1,0"
       position="90,95.3125"
       id="guide2992" />
    <sodipodi:guide
       orientation="0,1"
       position="49.144,78"
       id="guide3016" />
    <sodipodi:guide
       orientation="0,1"
       position="47.508737,21"
       id="guide3018" />
    <sodipodi:guide
       orientation="1,0"
       position="21,53.359376"
       id="guide3020" />
    <sodipodi:guide
       orientation="1,0"
       position="78,51.154757"
       id="guide3022" />
    <sodipodi:guide
       orientation="0,1"
       position="6.9843751,50"
       id="guide3027" />
    <sodipodi:guide
       orientation="1,0"
       position="17.5,47.5625"
       id="guide3037" />
    <sodipodi:guide
       orientation="0,1"
       position="17.5,82.5"
       id="guide3039" />
    <sodipodi:guide
       orientation="1,0"
       position="82.5,73.008776"
       id="guide3041" />
    <sodipodi:guide
       orientation="0,1"
       position="78,17.5"
       id="guide3043" />
    <sodipodi:guide
       orientation="0,1"
       position="136.26563,64.73047"
       id="guide3082" />
    <sodipodi:guide
       orientation="1,0"
       position="50,73.05297"
       id="guide3094" />
  </sodipodi:namedview>
  <metadata
     id="metadata7">
    <rdf:RDF>
      <cc:Work
         rdf:about="">
        <dc:format>image/svg+xml</dc:format>
        <dc:type
           rdf:resource="http://purl.org/dc/dcmitype/StillImage" />
        <dc:title></dc:title>
      </cc:Work>
    </rdf:RDF>
  </metadata>
  <g
     inkscape:label="Layer 1"
     inkscape:groupmode="layer"
     id="layer1"
     transform="translate(0,-952.36218)">
    <path
       style="fill:#000000;stroke:none"
       d="m 50.253374,966.24263 c -20.197557,0 -36.584314,16.34597 -36.584314,36.52717 0,20.1812 16.386757,36.5558 36.584314,36.5558 20.197556,0 36.555754,-16.3746 36.555754,-36.5558 0,-20.1812 -16.358198,-36.52717 -36.555754,-36.52717 z m 0,6.82564 c 16.402913,0.0238 29.701549,13.35256 29.701549,29.75863 0,16.4062 -13.298636,29.6683 -29.701549,29.6445 -16.402905,-0.024 -29.701551,-13.324 -29.701551,-29.7302 0,-16.40606 13.298646,-29.6968 29.701551,-29.67293 z"
       id="path3012"
       inkscape:connector-curvature="0" />
    <path
       style="fill:#000000;stroke:none"
       d="M 48.03125 10 L 48.03125 27 L 52.03125 27 L 52.03125 10 L 48.03125 10 z M 9.96875 48 L 9.96875 52 L 26.96875 52 L 26.96875 48 L 9.96875 48 z M 73 48 L 73 52 L 90 52 L 90 48 L 73 48 z M 48.03125 73.15625 L 48.03125 90.15625 L 52.03125 90.15625 L 52.03125 73.15625 L 48.03125 73.15625 z "
       transform="translate(0,952.36218)"
       id="rect3024" />
    <path
       style="fill:#000000;stroke:none"
       d="m 50,982.71911 c -1.729119,0 -1.678521,-0.003 -2.512661,0.11719 -1.48308,0.21351 -2.96265,0.53087 -4.375,1.03125 -1.45352,0.51497 -2.87076,1.22867 -4.1875,2.03125 -0.91751,0.55924 -1.74103,1.2136 -2.5625,1.90625 -0.40553,0.34193 -0.81284,0.68949 -1.15625,1.09375 -0.43677,0.51416 -0.48496,0.57641 -1.125,1.6875 -0.21947,0.46086 -1.05005,1.97995 -1.1875,3.53125 l -0.15625,1.75 -0.03125,2.59375 0.0625,2.0937 0.25,2.3438 c 0,0 0.2735,1.502 0.53125,2.2187 0.24299,0.6757 0.69668,1.261 0.9375,1.9375 0.40899,1.1489 1.251,2.835 1.65625,4.4063 0.39137,1.5174 0.37108,2.9158 0.75,3.6562 0.85686,2.1213 -0.1267,1.2634 3.90625,2.25 0.60996,0.1492 1.62788,0.6883 2.25,1.2813 0.52622,0.5017 0.7435,0.9511 1.1875,1.8437 0,0 0.0736,0.1931 0.1875,0.375 0.51326,0.8193 0.105,0.5455 2.1875,0.9375 1.11009,0.2089 3.149291,0.163 3.387661,0.1602 0.17208,-0.01 2.283499,0.017 3.393589,-0.1914 2.0825,-0.392 1.67424,-0.087 2.1875,-0.9063 0.11394,-0.1819 0.1875,-0.375 0.1875,-0.375 0.444,-0.8926 0.66128,-1.342 1.1875,-1.8437 0.62212,-0.593 1.60879,-1.1321 2.21875,-1.2813 4.03295,-0.9866 3.08064,-0.1287 3.9375,-2.25 0.37892,-0.7404 0.35863,-2.1388 0.75,-3.6562 0.40525,-1.5713 1.21601,-3.2574 1.625,-4.4063 0.24082,-0.6765 0.72576,-1.2618 0.96875,-1.9375 0.25775,-0.7167 0.53125,-2.2187 0.53125,-2.2187 l 0.21875,-2.3438 0.09375,-2.0937 -0.03125,-2.59375 -0.15625,-1.75 c -0.13745,-1.5513 -0.96803,-3.07039 -1.1875,-3.53125 -0.64004,-1.11109 -0.68823,-1.17334 -1.125,-1.6875 -0.34346,-0.40426 -0.75072,-0.75182 -1.15625,-1.09375 -0.82147,-0.69265 -1.67624,-1.34701 -2.59375,-1.90625 -1.31674,-0.80258 -2.70273,-1.51628 -4.15625,-2.03125 -1.41235,-0.50038 -2.89192,-0.81774 -4.375,-1.03125 -0.83414,-0.12009 -0.78947,-0.11719 -2.518589,-0.11719 z m 7.518589,18.61719 c 2.73367,0 4.96875,2.197 4.96875,4.9062 0,2.7093 -2.23508,4.9063 -4.96875,4.9063 -2.73367,0 -4.9375,-2.197 -4.9375,-4.9063 0,-2.7092 2.20383,-4.9062 4.9375,-4.9062 z m -15.28125,0.094 c 2.73367,0 4.9375,2.197 4.9375,4.9063 0,2.7092 -2.20383,4.9062 -4.9375,4.9062 -2.73367,0 -4.96875,-2.197 -4.96875,-4.9062 0,-2.7093 2.23508,-4.9063 4.96875,-4.9063 z m 7.75,8.9375 c 0.03269,0 2.29139,2.4083 2.75,3.5625 0.68696,1.7289 0.596,2.1212 0.625,2.3438 0.0091,0.07 -0.06735,0.1372 -0.15625,0.1562 -0.26571,0.055 -3.21875,0.2188 -3.21875,0.2188 0,0 -2.92179,-0.1637 -3.1875,-0.2188 -0.0889,-0.019 -0.1966,-0.086 -0.1875,-0.1562 0.029,-0.2226 -0.03071,-0.6149 0.65625,-2.3438 0.45861,-1.1542 2.68606,-3.5625 2.71875,-3.5625 z"
       id="path3062"
       inkscape:connector-curvature="0"
       sodipodi:nodetypes="scsssscccccccscccccccccccccccsccccccccssssssssssssssssscccccss" />
  </g>
</svg>
