<?xml version="1.0" encoding="UTF-8" standalone="no"?>
<!-- Created with Inkscape (http://www.inkscape.org/) -->

<svg
   xmlns:dc="http://purl.org/dc/elements/1.1/"
   xmlns:cc="http://creativecommons.org/ns#"
   xmlns:rdf="http://www.w3.org/1999/02/22-rdf-syntax-ns#"
   xmlns:svg="http://www.w3.org/2000/svg"
   xmlns="http://www.w3.org/2000/svg"
   xmlns:sodipodi="http://sodipodi.sourceforge.net/DTD/sodipodi-0.dtd"
   xmlns:inkscape="http://www.inkscape.org/namespaces/inkscape"
   width="100"
   height="100"
   id="svg2"
   version="1.1"
   inkscape:version="0.48.4 r9939"
   sodipodi:docname="info_sv_server.svg">
  <defs
     id="defs4">
    <inkscape:perspective
       sodipodi:type="inkscape:persp3d"
       inkscape:vp_x="0 : 50 : 1"
       inkscape:vp_y="0 : 1000 : 0"
       inkscape:vp_z="100 : 50 : 1"
       inkscape:persp3d-origin="50 : 33.333333 : 1"
       id="perspective3017" />
  </defs>
  <sodipodi:namedview
     id="base"
     pagecolor="#ffffff"
     bordercolor="#666666"
     borderopacity="1.0"
     inkscape:pageopacity="0.0"
     inkscape:pageshadow="2"
     inkscape:zoom="8"
     inkscape:cx="28.767495"
     inkscape:cy="60.102395"
     inkscape:document-units="px"
     inkscape:current-layer="layer1"
     showgrid="false"
     inkscape:window-width="1366"
     inkscape:window-height="716"
     inkscape:window-x="-8"
     inkscape:window-y="-8"
     inkscape:window-maximized="1"
     showguides="true"
     inkscape:guide-bbox="true">
    <sodipodi:guide
       orientation="1,0"
       position="10,103.2881"
       id="guide2982" />
    <sodipodi:guide
       orientation="0,1"
       position="7.9910714,90"
       id="guide2986" />
    <sodipodi:guide
       orientation="0,1"
       position="128.66269,11.067758"
       id="guide2988" />
    <sodipodi:guide
       orientation="1,0"
       position="90,95.3125"
       id="guide2992" />
    <sodipodi:guide
       orientation="0,1"
       position="-12.879445,50"
       id="guide3003" />
    <sodipodi:guide
       orientation="1,0"
       position="50,50"
       id="guide3005" />
    <sodipodi:guide
       orientation="1,0"
       position="79.519532,46.054688"
       id="guide2997" />
    <sodipodi:guide
       orientation="0,1"
       position="87.890625,39.347656"
       id="guide3015" />
    <sodipodi:guide
       orientation="1,0"
       position="28.253906,45.234375"
       id="guide3030" />
    <sodipodi:guide
       orientation="0,1"
       position="26.975019,55.778572"
       id="guide3037" />
    <sodipodi:guide
       orientation="0,1"
       position="24.882813,71.253906"
       id="guide3039" />
  </sodipodi:namedview>
  <metadata
     id="metadata7">
    <rdf:RDF>
      <cc:Work
         rdf:about="">
        <dc:format>image/svg+xml</dc:format>
        <dc:type
           rdf:resource="http://purl.org/dc/dcmitype/StillImage" />
        <dc:title></dc:title>
      </cc:Work>
    </rdf:RDF>
  </metadata>
  <g
     inkscape:label="Layer 1"
     inkscape:groupmode="layer"
     id="layer1"
     transform="translate(0,-952.36218)">
    <path
       style="fill:#000000;stroke:none"
       d="M 10 38 L 10 62 L 90 62 L 90 38 L 46.4375 38 L 45.5625 38.875 L 89.1875 38.875 L 89.1875 61.0625 L 10.84375 61.0625 L 10.84375 38.875 L 10.9375 38.875 L 10.0625 38 L 10 38 z M 11.28125 39.28125 L 11.28125 60.65625 L 87.34375 60.65625 L 88.65625 60.65625 L 88.75 60.65625 L 88.75 39.28125 L 88.65625 39.28125 L 87.34375 39.28125 L 45.15625 39.28125 L 28.25 56.1875 L 11.34375 39.28125 L 11.28125 39.28125 z M 79.59375 45.75 L 83.8125 50 L 79.53125 54.25 L 75.3125 50 L 79.59375 45.75 z M 75.75 50 C 77.846633 52.0239 77.860393 52.03485 79.53125 53.71875 C 81.635704 51.59475 81.42225 51.8113 83.25 50 L 75.75 50 z "
       transform="translate(0,952.36218)"
       id="rect2989" />
    <path
       style="fill:#000000;stroke:none"
       d="M 28.1875 18.25 L 10 36.375 L 28.28125 54.6875 L 46.46875 36.59375 L 28.1875 18.25 z M 24.28125 28.75 C 26.869797 28.743 29.47393 28.75285 32.0625 28.75 C 31.152654 35.27936 31.09963 35.11828 29.8125 44.21875 L 26.625 44.21875 C 26.433761 42.90151 25.300506 35.60988 24.28125 28.75 z M 26.75 45 L 29.75 45 L 29.75 48 L 26.75 48 L 26.75 45 z "
       transform="translate(0,952.36218)"
       id="rect3025" />
  </g>
</svg>
